<?xml version="1.0" standalone="no"?>
<!DOCTYPE svg PUBLIC "-//W3C//DTD SVG 20010904//EN"
 "http://www.w3.org/TR/2001/REC-SVG-20010904/DTD/svg10.dtd">
<svg version="1.0" xmlns="http://www.w3.org/2000/svg"
 width="1280.000000pt" height="640.000000pt" viewBox="0 0 1280.000000 640.000000"
 preserveAspectRatio="xMidYMid meet">

<g transform="translate(0.000000,640.000000) scale(0.100000,-0.100000)"
fill="#000000" stroke="none">
<path d="M2392 5300 c-18 -4 -36 -11 -40 -15 -4 -5 3 -5 16 -2 12 3 25 0 30
-7 10 -15 58 -36 85 -36 12 0 35 -7 51 -15 15 -8 33 -15 40 -15 6 0 22 -9 36
-20 14 -11 33 -20 42 -20 10 0 22 -9 28 -21 7 -11 14 -18 17 -15 3 3 -11 25
-31 49 -20 24 -36 54 -36 65 0 12 -10 28 -22 36 -27 16 -168 27 -216 16z"/>
<path d="M2250 5250 c-8 -5 -10 -10 -5 -10 6 0 17 5 25 10 8 5 11 10 5 10 -5
0 -17 -5 -25 -10z"/>
<path d="M2335 5252 c-6 -5 -30 -15 -55 -22 -25 -8 -49 -17 -55 -21 -5 -4 -28
-10 -49 -14 -31 -6 -37 -5 -31 5 10 16 3 12 -78 -43 -32 -21 -56 -41 -53 -44
3 -3 17 4 33 15 15 10 39 23 53 27 27 9 157 8 203 -1 26 -5 28 -4 22 16 -5 16
-4 20 5 15 18 -11 60 15 53 33 -4 10 -2 13 5 8 6 -3 13 -2 17 3 12 20 -51 40
-70 23z"/>
<path d="M2180 5220 c-9 -6 -10 -10 -3 -10 6 0 15 5 18 10 8 12 4 12 -15 0z"/>
<path d="M2352 5163 c-19 -8 -3 -23 24 -23 32 0 66 -18 59 -31 -4 -5 -1 -9 4
-9 6 0 11 5 11 10 0 6 7 10 16 10 28 0 -3 28 -39 35 -18 4 -39 8 -47 10 -8 2
-21 1 -28 -2z"/>
<path d="M2500 5108 c0 -9 13 -15 35 -16 19 -2 35 2 35 8 0 5 -6 10 -12 10 -7
0 -23 3 -35 6 -16 4 -23 2 -23 -8z"/>
<path d="M2734 5095 c16 -15 38 -37 49 -48 l19 -22 -14 24 c-8 14 -30 36 -49
49 l-34 25 29 -28z"/>
<path d="M1943 5049 c-22 -30 -51 -74 -65 -99 -32 -55 -88 -217 -86 -247 3
-27 18 -20 18 8 0 16 5 19 20 14 10 -3 42 1 70 9 57 17 52 16 85 16 14 0 25 5
25 11 0 7 -14 8 -40 4 -22 -4 -46 -8 -53 -9 -6 -1 -16 -4 -22 -7 -5 -4 -23 -9
-39 -13 l-29 -7 6 50 c8 69 58 167 83 163 14 -2 16 -1 5 6 -16 12 2 52 24 52
8 0 17 14 21 34 3 19 12 36 20 38 9 2 10 8 5 17 -6 10 -19 0 -48 -40z"/>
<path d="M2597 5092 c-16 -3 -15 -6 8 -18 15 -8 35 -14 44 -14 9 -1 34 -9 56
-20 22 -11 46 -19 53 -20 6 0 12 -4 12 -10 0 -5 6 -7 14 -4 11 4 7 13 -17 33
-47 41 -92 62 -104 50 -7 -7 -18 -8 -29 -2 -11 5 -27 8 -37 5z"/>
<path d="M2040 5080 c-13 -8 -12 -10 3 -10 9 0 17 5 17 10 0 12 -1 12 -20 0z"/>
<path d="M2078 5073 c7 -3 16 -2 19 1 4 3 -2 6 -13 5 -11 0 -14 -3 -6 -6z"/>
<path d="M2154 5068 c-3 -4 4 -8 15 -8 12 0 21 4 21 8 0 5 -7 9 -15 9 -9 0
-18 -4 -21 -9z"/>
<path d="M2427 5073 c-4 -3 -7 -17 -7 -29 0 -13 -4 -25 -10 -29 -5 -3 -7 -12
-4 -20 8 -19 23 -10 22 13 0 9 3 29 7 45 7 27 5 33 -8 20z"/>
<path d="M2486 5055 c-4 -11 1 -15 21 -15 14 0 24 1 22 3 -2 1 -11 8 -20 15
-14 10 -18 10 -23 -3z"/>
<path d="M2310 5030 c8 -5 20 -10 25 -10 6 0 3 5 -5 10 -8 5 -19 10 -25 10 -5
0 -3 -5 5 -10z"/>
<path d="M1990 5010 c0 -5 4 -10 9 -10 6 0 13 5 16 10 3 6 -1 10 -9 10 -9 0
-16 -4 -16 -10z"/>
<path d="M2705 5011 c-3 -5 -1 -12 5 -16 5 -3 10 1 10 9 0 18 -6 21 -15 7z"/>
<path d="M2145 5000 c11 -5 27 -9 35 -9 13 -1 13 0 0 9 -8 5 -24 9 -35 9 l-20
0 20 -9z"/>
<path d="M2825 5000 c3 -5 11 -10 16 -10 6 0 7 5 4 10 -3 6 -11 10 -16 10 -6
0 -7 -4 -4 -10z"/>
<path d="M2470 4986 c0 -2 7 -6 15 -10 8 -3 15 -1 15 4 0 6 -7 10 -15 10 -8 0
-15 -2 -15 -4z"/>
<path d="M2770 4979 c0 -5 5 -7 10 -4 6 3 10 8 10 11 0 2 -4 4 -10 4 -5 0 -10
-5 -10 -11z"/>
<path d="M2895 4956 c22 -19 55 -52 73 -72 17 -20 32 -32 32 -27 0 6 -9 20
-20 33 -11 13 -20 27 -20 32 0 4 -6 8 -13 8 -8 0 -22 9 -33 21 -10 11 -28 25
-39 30 -11 6 -2 -6 20 -25z"/>
<path d="M1965 4949 c-9 -14 -2 -20 14 -10 8 6 9 11 3 15 -6 3 -14 1 -17 -5z"/>
<path d="M2835 4950 c3 -5 8 -10 11 -10 2 0 4 5 4 10 0 6 -5 10 -11 10 -5 0
-7 -4 -4 -10z"/>
<path d="M2107 4943 c-4 -3 -7 -11 -7 -17 0 -6 5 -5 12 2 6 6 9 14 7 17 -3 3
-9 2 -12 -2z"/>
<path d="M2350 4939 c0 -5 6 -9 13 -9 6 0 23 -3 37 -7 36 -9 19 6 -19 17 -19
5 -31 5 -31 -1z"/>
<path d="M2645 4930 c4 -6 11 -8 16 -5 14 9 11 15 -7 15 -8 0 -12 -5 -9 -10z"/>
<path d="M2772 4910 c0 -19 2 -27 5 -17 2 9 2 25 0 35 -3 9 -5 1 -5 -18z"/>
<path d="M2685 4920 c3 -5 10 -10 16 -10 5 0 9 5 9 10 0 6 -7 10 -16 10 -8 0
-12 -4 -9 -10z"/>
<path d="M2471 4904 c0 -11 3 -14 6 -6 3 7 2 16 -1 19 -3 4 -6 -2 -5 -13z"/>
<path d="M1935 4882 c-12 -12 -4 -20 15 -15 11 3 20 9 20 12 0 9 -27 10 -35 3z"/>
<path d="M2842 4870 c0 -14 2 -19 5 -12 2 6 2 18 0 25 -3 6 -5 1 -5 -13z"/>
<path d="M2117 4873 c-8 -12 30 -29 40 -19 4 3 -1 6 -9 6 -9 0 -18 5 -20 12
-3 9 -6 9 -11 1z"/>
<path d="M2330 4870 c0 -5 5 -10 11 -10 5 0 7 5 4 10 -3 6 -8 10 -11 10 -2 0
-4 -4 -4 -10z"/>
<path d="M2565 4870 c3 -5 8 -10 11 -10 2 0 4 5 4 10 0 6 -5 10 -11 10 -5 0
-7 -4 -4 -10z"/>
<path d="M1880 4860 c0 -5 7 -7 15 -4 8 4 15 8 15 10 0 2 -7 4 -15 4 -8 0 -15
-4 -15 -10z"/>
<path d="M2372 4861 c-11 -6 -10 -10 5 -16 10 -4 27 -10 37 -12 17 -3 17 -1
-4 17 -13 11 -23 20 -24 20 -1 0 -7 -4 -14 -9z"/>
<path d="M2610 4860 c0 -5 5 -10 11 -10 5 0 7 5 4 10 -3 6 -8 10 -11 10 -2 0
-4 -4 -4 -10z"/>
<path d="M2887 4863 c-3 -5 -2 -15 2 -22 5 -7 11 -9 14 -4 3 5 2 15 -2 22 -5
7 -11 9 -14 4z"/>
<path d="M2680 4825 c7 -8 17 -12 22 -9 6 4 5 10 -3 15 -22 14 -33 10 -19 -6z"/>
<path d="M2460 4820 c0 -6 7 -10 15 -10 8 0 15 2 15 4 0 2 -7 6 -15 10 -8 3
-15 1 -15 -4z"/>
<path d="M2510 4805 c0 -8 5 -15 10 -15 6 0 10 7 10 15 0 8 -4 15 -10 15 -5 0
-10 -7 -10 -15z"/>
<path d="M2762 4790 c0 -19 2 -27 5 -17 2 9 2 25 0 35 -3 9 -5 1 -5 -18z"/>
<path d="M1910 4800 c-9 -6 -10 -10 -3 -10 6 0 15 5 18 10 8 12 4 12 -15 0z"/>
<path d="M2283 4789 c-2 -17 2 -20 19 -16 36 10 46 -1 42 -46 -3 -41 -3 -41 4
-7 5 20 12 41 16 48 8 13 -39 36 -55 26 -5 -3 -9 0 -9 5 0 20 -16 11 -17 -10z"/>
<path d="M2554 4784 c-5 -19 -12 -24 -25 -21 -11 3 -17 1 -13 -4 3 -5 12 -9
20 -9 10 0 14 -13 15 -42 2 -35 3 -37 6 -13 3 17 8 35 12 40 12 16 13 75 1 75
-5 0 -13 -12 -16 -26z"/>
<path d="M2136 4783 c-4 -9 -5 -17 -4 -17 2 -1 35 1 73 4 75 7 75 9 5 16 -25
3 -50 6 -57 9 -6 2 -14 -3 -17 -12z"/>
<path d="M2790 4790 c0 -5 5 -10 11 -10 5 0 7 5 4 10 -3 6 -8 10 -11 10 -2 0
-4 -4 -4 -10z"/>
<path d="M2380 4781 c0 -10 50 -25 58 -16 8 7 1 11 -30 19 -16 3 -28 2 -28 -3z"/>
<path d="M2825 4781 c-3 -5 -1 -12 5 -16 5 -3 10 1 10 9 0 18 -6 21 -15 7z"/>
<path d="M2076 4767 c-18 -13 -18 -14 -1 -21 22 -8 28 -3 23 19 -3 14 -5 14
-22 2z"/>
<path d="M2020 4729 c0 -48 9 -48 15 0 2 17 -1 33 -6 36 -5 4 -9 -13 -9 -36z"/>
<path d="M2480 4643 c-3 -73 -1 -129 3 -124 4 4 6 64 5 132 l-3 124 -5 -132z"/>
<path d="M2675 4760 c3 -5 10 -10 16 -10 5 0 9 5 9 10 0 6 -7 10 -16 10 -8 0
-12 -4 -9 -10z"/>
<path d="M2855 4760 c3 -5 8 -10 11 -10 2 0 4 5 4 10 0 6 -5 10 -11 10 -5 0
-7 -4 -4 -10z"/>
<path d="M2880 4750 c0 -5 5 -10 10 -10 6 0 10 5 10 10 0 6 -4 10 -10 10 -5 0
-10 -4 -10 -10z"/>
<path d="M2153 4675 c0 -38 2 -53 4 -32 2 20 2 52 0 70 -2 17 -4 1 -4 -38z"/>
<path d="M2615 4730 c3 -5 10 -10 16 -10 5 0 9 5 9 10 0 6 -7 10 -16 10 -8 0
-12 -4 -9 -10z"/>
<path d="M2662 4728 c2 -7 18 -20 36 -29 17 -9 47 -30 67 -48 20 -17 40 -29
46 -26 13 9 11 15 -3 13 -7 -2 -14 7 -16 20 -2 12 -10 22 -18 22 -8 0 -14 4
-14 10 0 5 -6 7 -14 4 -8 -3 -17 -1 -21 5 -3 6 -15 11 -25 11 -13 0 -17 5 -14
15 4 10 0 15 -11 15 -9 0 -15 -6 -13 -12z"/>
<path d="M2832 4720 c0 -14 2 -19 5 -12 2 6 2 18 0 25 -3 6 -5 1 -5 -13z"/>
<path d="M2212 4558 l-2 -177 -57 2 -58 3 -5 169 -5 170 -5 -175 -5 -175 -27
0 c-15 -1 -30 -4 -34 -8 -12 -12 -44 -8 -44 5 0 7 -5 5 -12 -5 -14 -17 -88
-47 -119 -47 -10 0 -26 -14 -36 -30 -16 -28 -19 -29 -30 -13 -12 15 -13 15
-13 -4 0 -12 5 -23 11 -25 6 -2 8 -14 4 -31 -9 -36 -15 -29 -31 35 -11 48 -12
50 -13 18 -1 -40 37 -127 65 -151 10 -8 31 -23 46 -32 l27 -17 -6 49 c-5 47 2
62 32 67 107 16 113 16 136 -7 20 -20 26 -21 68 -11 25 6 54 14 63 17 16 6 16
5 2 -24 -9 -17 -21 -31 -27 -31 -14 1 -135 34 -159 45 -11 4 -18 3 -18 -4 0
-6 17 -18 38 -27 37 -16 56 -20 100 -23 13 0 21 -5 18 -10 -3 -5 8 -11 24 -13
17 -3 30 0 30 6 0 6 4 5 9 -2 6 -10 10 -8 14 8 5 19 10 21 34 15 55 -14 122
-13 127 1 3 8 11 14 17 14 8 0 8 -4 -1 -15 -13 -16 -10 -17 100 -34 59 -9 229
-6 239 5 2 2 -28 4 -67 4 -86 0 -95 15 -14 24 117 14 120 15 132 52 7 19 10
53 8 77 -3 37 -8 45 -45 70 -24 15 -53 27 -65 27 -13 0 -36 7 -52 15 -19 10
-66 16 -150 18 l-121 2 -2 40 c-3 68 -6 72 -12 15 -4 -40 -10 -55 -21 -55 -12
0 -16 18 -20 85 l-5 85 -8 -85 c-4 -46 -10 -86 -13 -89 -2 -3 -10 1 -17 8 -8
8 -14 66 -17 179 l-6 167 -2 -177z m-402 -401 c-6 -16 -9 -5 -8 43 0 63 0 64
9 22 4 -24 4 -52 -1 -65z m35 -45 c-8 -8 -25 10 -25 26 0 13 2 13 14 -4 8 -10
13 -21 11 -22z"/>
<path d="M2950 4721 c0 -9 24 -21 42 -21 6 0 6 6 -2 15 -14 16 -40 20 -40 6z"/>
<path d="M1897 4713 c-4 -3 -6 -22 -6 -42 l1 -36 8 40 c8 42 8 49 -3 38z"/>
<path d="M3017 4678 c7 -37 10 -44 19 -35 9 8 -6 67 -17 67 -4 0 -6 -15 -2
-32z"/>
<path d="M1951 4680 c-1 -8 -4 -26 -7 -40 -5 -19 -4 -22 5 -14 7 6 11 24 8 40
-2 16 -5 22 -6 14z"/>
<path d="M2273 4655 c0 -22 2 -30 4 -17 2 12 2 30 0 40 -3 9 -5 -1 -4 -23z"/>
<path d="M2626 4648 c-3 -23 -7 -71 -10 -106 -3 -34 -8 -75 -11 -90 -5 -25 -5
-26 5 -4 10 24 33 232 26 240 -3 2 -7 -16 -10 -40z"/>
<path d="M2332 4618 c-1 -36 -5 -75 -8 -85 -5 -14 -4 -15 5 -7 8 7 11 36 8 85
l-3 74 -2 -67z"/>
<path d="M2951 4664 c0 -11 3 -14 6 -6 3 7 2 16 -1 19 -3 4 -6 -2 -5 -13z"/>
<path d="M2012 4640 c0 -19 2 -27 5 -17 2 9 2 25 0 35 -3 9 -5 1 -5 -18z"/>
<path d="M2702 4608 c-1 -36 -5 -75 -8 -85 -5 -14 -4 -15 5 -7 8 7 11 36 8 85
l-3 74 -2 -67z"/>
<path d="M2840 4650 c0 -5 5 -10 11 -10 5 0 7 5 4 10 -3 6 -8 10 -11 10 -2 0
-4 -4 -4 -10z"/>
<path d="M1747 4580 c-8 -36 -18 -101 -21 -145 -6 -86 -2 -90 10 -10 l8 50 7
-35 c6 -24 7 -16 4 28 -3 35 0 83 6 107 6 24 9 50 7 57 -3 7 -12 -17 -21 -52z"/>
<path d="M2552 4615 c0 -16 2 -22 5 -12 2 9 2 23 0 30 -3 6 -5 -1 -5 -18z"/>
<path d="M2870 4630 c0 -5 5 -10 11 -10 5 0 7 5 4 10 -3 6 -8 10 -11 10 -2 0
-4 -4 -4 -10z"/>
<path d="M1877 4558 c-6 -65 -4 -89 7 -77 7 8 13 149 6 149 -4 0 -10 -32 -13
-72z"/>
<path d="M2763 4585 c0 -27 2 -38 4 -22 2 15 2 37 0 50 -2 12 -4 0 -4 -28z"/>
<path d="M2900 4610 c0 -5 5 -10 10 -10 6 0 10 5 10 10 0 6 -4 10 -10 10 -5 0
-10 -4 -10 -10z"/>
<path d="M2411 4594 c0 -11 3 -14 6 -6 3 7 2 16 -1 19 -3 4 -6 -2 -5 -13z"/>
<path d="M2822 4563 c1 -44 2 -45 5 -10 2 20 8 35 14 32 5 -3 6 1 3 9 -12 32
-24 15 -22 -31z"/>
<path d="M1940 4544 c0 -32 4 -65 9 -73 5 -8 7 14 4 55 -7 87 -13 96 -13 18z"/>
<path d="M2014 4490 c0 -58 1 -81 3 -52 2 28 2 76 0 105 -2 28 -3 5 -3 -53z"/>
<path d="M1822 4505 l1 -80 7 70 c3 39 3 74 -2 80 -4 5 -7 -27 -6 -70z"/>
<path d="M2551 4564 c0 -11 3 -14 6 -6 3 7 2 16 -1 19 -3 4 -6 -2 -5 -13z"/>
<path d="M2888 4529 c5 -47 7 -47 16 4 5 27 4 37 -6 37 -10 0 -12 -12 -10 -41z"/>
<path d="M3030 4540 c0 -5 5 -10 11 -10 5 0 7 5 4 10 -3 6 -8 10 -11 10 -2 0
-4 -4 -4 -10z"/>
<path d="M2935 4520 c10 -11 22 -20 27 -20 5 0 4 9 -2 20 -6 11 -18 20 -27 20
-14 0 -14 -2 2 -20z"/>
<path d="M2406 4492 c-4 -13 -5 -26 -2 -29 10 -11 18 4 14 29 l-4 23 -8 -23z"/>
<path d="M3015 4490 c7 -21 -4 -27 -20 -10 -7 6 -9 -11 -7 -45 2 -30 8 -55 13
-55 5 0 6 18 3 40 -4 27 -3 40 5 40 12 0 12 1 16 -55 2 -22 10 -85 19 -140 22
-136 21 -165 -3 -165 -25 0 -36 18 -32 52 1 16 -2 28 -8 28 -6 0 -11 -9 -11
-20 0 -27 -16 -25 -36 5 -9 14 -20 22 -26 19 -16 -10 -38 18 -38 49 0 28 -1
29 -13 12 -10 -12 -16 -14 -21 -7 -4 7 -10 12 -14 12 -14 0 -10 -45 10 -122
20 -74 20 -78 3 -122 -10 -25 -20 -46 -24 -46 -3 -1 -19 -12 -36 -26 -17 -15
-22 -24 -12 -20 23 7 22 6 -15 -53 -81 -125 -81 -124 -80 -183 1 -31 5 -65 11
-75 8 -15 -1 -26 -52 -64 -77 -57 -148 -93 -252 -129 -101 -34 -119 -29 -133
37 -16 70 -17 104 -8 238 9 127 16 155 43 155 22 0 14 6 -21 14 -23 6 -27 4
-23 -8 3 -8 1 -16 -6 -19 -19 -6 -20 -323 -1 -383 8 -27 18 -58 21 -69 6 -20
-59 35 -177 148 -30 30 -79 73 -107 96 -29 24 -53 49 -53 56 0 8 -6 18 -14 22
-7 4 -16 15 -19 23 -4 10 -6 7 -6 -7 -1 -13 4 -23 10 -23 8 0 8 -4 1 -12 -8
-11 -52 -164 -52 -183 0 -4 -17 -5 -37 -3 -35 3 -39 6 -44 38 -4 23 -7 27 -8
12 -2 -35 -19 -62 -40 -62 -10 0 -43 -9 -74 -19 -30 -11 -58 -17 -60 -14 -8 7
12 69 44 138 35 77 37 99 5 64 -14 -16 -35 -64 -52 -122 -25 -87 -30 -97 -57
-107 -17 -5 -32 -10 -34 -10 -2 0 -3 30 -2 68 3 69 15 112 32 112 5 0 26 15
46 33 21 17 50 42 66 55 27 21 30 21 37 5 5 -14 7 -13 7 7 1 17 13 33 39 50
20 13 63 47 95 74 47 39 61 47 68 35 7 -11 9 -8 9 9 0 20 -4 22 -22 16 -52
-15 -86 -33 -119 -61 -53 -46 -199 -143 -214 -143 -8 0 -20 -10 -26 -22 -7
-13 -22 -31 -33 -41 -18 -16 -21 -30 -21 -98 0 -76 -1 -80 -28 -97 -15 -10
-24 -21 -21 -25 3 -3 -3 -21 -14 -39 -11 -18 -21 -36 -22 -40 0 -4 -10 -29
-21 -55 -67 -155 -99 -260 -114 -376 -3 -26 -10 -45 -14 -42 -9 5 -30 76 -35
115 -5 38 -28 80 -44 80 -10 0 -12 -6 -8 -22 4 -13 14 -52 23 -88 8 -36 19
-70 24 -75 4 -6 13 -24 18 -40 l11 -30 -18 25 c-31 45 -91 104 -98 97 -4 -4
-1 -15 7 -24 8 -10 23 -34 32 -53 9 -19 26 -48 37 -65 11 -16 25 -41 32 -55 7
-14 18 -29 25 -33 7 -4 13 -16 13 -25 0 -24 25 -91 38 -104 7 -7 12 -21 12
-32 0 -29 61 -257 77 -289 8 -17 13 -50 12 -81 -1 -29 1 -58 5 -65 14 -22 19
-134 8 -186 -6 -27 -19 -71 -29 -97 -15 -40 -16 -51 -5 -68 14 -23 7 -25 -28
-5 -14 8 -37 14 -52 15 -26 0 -51 20 -26 20 8 0 6 5 -5 11 -10 6 -21 8 -24 5
-4 -3 -1 -6 6 -6 7 0 9 -5 6 -10 -4 -7 -11 -8 -18 -1 -7 5 -30 12 -52 16 -22
4 -48 12 -57 16 -12 7 -40 -3 -100 -34 -105 -54 -168 -94 -168 -107 0 -16 9
-12 73 31 75 52 154 89 188 89 43 0 226 -68 260 -97 15 -12 17 -11 20 14 3 15
2 44 -1 63 -4 24 0 48 13 75 16 31 21 66 23 160 2 66 8 143 13 170 6 28 14
124 19 215 10 159 12 168 47 250 21 47 44 92 51 101 8 8 14 21 14 27 0 7 6 12
13 12 6 1 -3 7 -22 16 -19 8 -32 16 -30 17 2 2 28 25 57 52 52 48 52 48 74 29
l22 -19 -17 27 c-16 26 -16 27 12 55 15 15 43 39 62 52 41 29 84 79 74 89 -3
4 -14 -4 -24 -17 -10 -13 -21 -19 -24 -14 -8 13 -8 174 0 232 5 37 10 45 40
57 19 8 39 11 46 7 6 -4 23 -8 37 -9 14 -1 19 0 12 3 -6 3 -10 9 -6 14 3 5 -2
9 -10 9 -13 0 -16 12 -16 61 0 49 3 60 14 56 8 -3 52 -11 98 -17 121 -16 118
-14 114 -63 -2 -23 -4 -49 -5 -59 -1 -14 -6 -15 -48 -4 -43 11 -55 12 -80 7
-21 -4 27 -21 59 -21 49 0 68 -9 68 -31 0 -20 -2 -20 -58 -22 -27 -1 -32 -4
-28 -20 2 -10 -2 -21 -10 -24 -8 -3 -14 -10 -14 -16 0 -6 10 -1 23 10 28 25
127 31 127 7 0 -15 16 -19 24 -5 3 4 29 11 57 14 28 4 57 12 65 18 8 6 14 8
14 4 0 -4 6 -3 13 2 6 6 42 20 79 32 37 12 84 35 105 50 43 31 153 95 153 89
0 -16 -36 -119 -60 -173 -16 -36 -25 -67 -19 -70 5 -4 9 0 9 8 0 9 14 46 31
84 17 37 36 89 42 114 10 36 25 58 72 101 43 39 65 54 75 48 28 -15 60 -21 60
-12 0 5 -11 14 -25 20 -32 15 -31 26 4 71 24 30 59 102 96 196 4 11 7 51 6 88
-2 38 2 74 8 81 9 11 6 12 -13 9 -20 -4 -24 -12 -29 -61 -7 -66 -36 -148 -66
-191 -12 -16 -21 -32 -21 -36 0 -4 -14 -25 -32 -47 -26 -34 -33 -37 -40 -23
-5 9 -10 36 -11 59 -2 37 5 55 46 113 26 39 47 74 47 80 0 6 9 22 20 35 10 14
29 55 41 92 15 47 25 64 33 56 5 -5 18 -10 28 -10 14 0 18 -8 19 -37 1 -21 5
-49 10 -63 7 -19 7 -15 4 18 -5 41 -4 43 29 57 43 18 49 19 43 3 -2 -7 4 -29
14 -48 23 -44 30 -116 11 -112 -8 1 -11 -2 -7 -8 3 -5 12 -10 19 -10 15 0 43
-158 53 -296 5 -72 4 -83 -14 -101 -10 -10 -18 -24 -16 -30 2 -6 -1 -14 -6
-18 -6 -3 -11 -14 -11 -24 0 -10 -7 -24 -15 -31 -17 -14 -21 -35 -5 -25 16 10
11 -1 -7 -16 -14 -12 -16 -12 -9 1 13 24 -42 -42 -66 -80 -19 -29 -23 -32 -26
-16 -3 12 -12 -1 -27 -38 -13 -31 -36 -67 -51 -79 -16 -12 -49 -43 -74 -68
-25 -25 -64 -58 -87 -73 -40 -24 -52 -44 -37 -58 9 -9 70 32 136 92 33 30 73
62 88 72 16 9 44 41 63 71 19 29 71 90 115 134 72 72 81 86 88 129 4 26 13 59
20 73 8 14 14 35 14 46 0 11 10 40 21 65 24 53 27 178 5 247 -4 13 3 26 24 43
17 14 30 31 30 39 0 10 -10 5 -30 -14 -16 -16 -32 -27 -34 -24 -13 14 -56 111
-56 127 0 11 11 23 28 29 25 10 24 11 -19 10 -38 -1 -45 -4 -39 -17 41 -79 61
-130 56 -139 -4 -6 1 -22 10 -36 26 -40 20 -171 -13 -254 -34 -88 -41 -93 -42
-29 0 29 -9 105 -20 168 -13 71 -17 118 -11 124 6 6 4 13 -4 20 -22 18 -28 73
-10 91 13 13 13 15 1 15 -8 0 -18 7 -21 16 -8 21 -8 49 1 41 3 -4 11 0 17 9
20 27 -4 251 -26 238 -6 -4 -9 4 -7 17 1 13 -1 40 -6 59 -10 38 -11 47 -14
101 0 23 -7 39 -17 43 -12 4 -14 1 -9 -14z m72 -382 c-3 -7 -5 -2 -5 12 0 14
2 19 5 13 2 -7 2 -19 0 -25z m-1122 -495 c23 -21 60 -54 83 -73 41 -35 49 -53
33 -78 -6 -11 -25 -10 -102 4 -52 9 -98 20 -103 25 -13 11 24 159 40 159 4 0
26 -17 49 -37z m-115 -187 c0 -50 -7 -62 -44 -75 -38 -15 -48 -6 -42 42 2 23
5 50 5 59 1 17 32 27 64 20 13 -3 17 -14 17 -46z m-104 -51 c-6 -29 -12 -34
-85 -58 -43 -15 -82 -27 -87 -27 -5 0 -8 19 -6 43 6 82 7 84 74 106 98 31 103
31 106 -3 2 -16 1 -44 -2 -61z m415 63 c24 -17 52 -42 62 -55 32 -41 49 -44
139 -28 46 8 93 18 106 21 88 25 -86 -73 -193 -107 -22 -7 -70 -14 -107 -14
-65 -1 -68 0 -68 22 0 13 4 23 10 23 6 0 6 9 0 25 -11 28 -10 145 0 145 4 0
27 -14 51 -32z m-605 -70 c-2 -24 -5 -53 -5 -65 -1 -19 -43 -53 -66 -53 -7 0
-5 92 4 114 6 17 46 45 64 46 4 0 6 -19 3 -42z m186 -209 l3 -141 -45 -39
c-25 -22 -50 -44 -57 -49 -13 -11 -33 15 -33 42 0 8 -12 30 -26 49 -41 54 -44
72 -32 160 12 87 15 91 87 102 18 3 35 8 39 11 3 3 18 6 33 6 l28 0 3 -141z
m-204 31 c-2 -33 -10 -65 -16 -70 -7 -6 -10 -7 -7 -4 2 4 -7 21 -20 39 -14 17
-25 37 -25 43 0 18 38 52 56 52 14 0 16 -10 12 -60z"/>
<path d="M2692 4470 c0 -19 2 -27 5 -17 2 9 2 25 0 35 -3 9 -5 1 -5 -18z"/>
<path d="M2751 4484 c0 -11 3 -14 6 -6 3 7 2 16 -1 19 -3 4 -6 -2 -5 -13z"/>
<path d="M2471 4464 c0 -11 3 -14 6 -6 3 7 2 16 -1 19 -3 4 -6 -2 -5 -13z"/>
<path d="M2949 4468 c-6 -32 -5 -88 2 -88 5 0 9 20 9 45 0 25 -2 45 -5 45 -3
0 -5 -1 -6 -2z"/>
<path d="M2822 4430 c0 -19 2 -27 5 -17 2 9 2 25 0 35 -3 9 -5 1 -5 -18z"/>
<path d="M2884 4365 c0 -55 1 -76 3 -47 2 29 2 74 0 100 -2 26 -3 2 -3 -53z"/>
<path d="M2152 4420 c0 -14 2 -19 5 -12 2 6 2 18 0 25 -3 6 -5 1 -5 -13z"/>
<path d="M2685 4400 c-4 -17 -5 -34 -2 -36 2 -3 7 10 11 27 8 42 0 50 -9 9z"/>
<path d="M1751 4384 c0 -11 3 -14 6 -6 3 7 2 16 -1 19 -3 4 -6 -2 -5 -13z"/>
<path d="M1870 4361 c0 -12 5 -21 10 -21 6 0 10 6 10 14 0 8 -4 18 -10 21 -5
3 -10 -3 -10 -14z"/>
<path d="M2807 4350 c-3 -11 -1 -20 4 -20 5 0 9 9 9 20 0 11 -2 20 -4 20 -2 0
-6 -9 -9 -20z"/>
<path d="M1722 4330 c0 -14 2 -19 5 -12 2 6 2 18 0 25 -3 6 -5 1 -5 -13z"/>
<path d="M2730 4340 c0 -5 5 -10 10 -10 6 0 10 5 10 10 0 6 -4 10 -10 10 -5 0
-10 -4 -10 -10z"/>
<path d="M1761 4324 c0 -11 3 -14 6 -6 3 7 2 16 -1 19 -3 4 -6 -2 -5 -13z"/>
<path d="M3003 4255 c0 -38 2 -53 4 -32 2 20 2 52 0 70 -2 17 -4 1 -4 -38z"/>
<path d="M2791 4296 c-10 -12 -8 -17 7 -25 17 -9 18 -7 14 14 -5 29 -6 29 -21
11z"/>
<path d="M5702 4170 c-17 -11 -40 -36 -49 -57 -15 -32 -26 -41 -73 -55 -68
-22 -105 -59 -89 -90 10 -18 17 -20 76 -13 l66 7 -7 -56 c-3 -31 -17 -85 -31
-121 -13 -36 -22 -72 -19 -80 7 -18 43 -19 65 -2 18 14 65 141 75 206 9 56 29
67 136 76 72 6 90 10 108 30 13 14 20 33 18 47 -3 23 -4 23 -112 20 l-109 -4
7 46 c6 38 4 46 -12 55 -14 7 -26 5 -50 -9z"/>
<path d="M2200 4100 c0 -5 5 -10 10 -10 6 0 10 5 10 10 0 6 -4 10 -10 10 -5 0
-10 -4 -10 -10z"/>
<path d="M5022 4064 c-26 -18 -28 -40 -6 -95 17 -40 16 -41 -7 -65 -15 -14
-54 -32 -98 -44 -106 -30 -111 -34 -111 -82 l0 -41 46 7 c26 3 86 22 134 41
48 19 94 35 102 35 7 0 22 -14 32 -31 23 -39 60 -57 81 -39 20 16 19 45 -1 80
-10 15 -14 34 -11 42 3 8 34 34 69 58 76 52 89 67 85 100 -4 41 -52 39 -107
-4 -25 -19 -57 -38 -72 -41 -24 -6 -30 -3 -45 26 -20 36 -49 69 -61 69 -4 0
-18 -7 -30 -16z"/>
<path d="M1863 4015 c0 -27 2 -38 4 -22 2 15 2 37 0 50 -2 12 -4 0 -4 -28z"/>
<path d="M11960 4019 c-41 -15 -89 -28 -106 -28 -53 -1 -94 -21 -101 -49 -8
-35 8 -56 46 -60 33 -3 197 46 262 79 45 22 56 53 26 74 -28 19 -37 18 -127
-16z"/>
<path d="M3233 4023 c-22 -8 -14 -18 16 -19 44 -2 61 -11 61 -36 1 -21 1 -22
11 -5 6 11 7 23 3 27 -15 15 -78 38 -91 33z"/>
<path d="M7097 4019 c-18 -10 -18 -26 -12 -272 3 -144 8 -277 11 -295 4 -26 0
-37 -21 -56 -36 -33 -160 -84 -265 -108 -189 -43 -184 -42 -198 -70 -10 -21
-10 -33 -1 -49 10 -19 17 -21 58 -15 25 3 106 23 179 42 73 20 135 34 138 32
16 -16 -131 -276 -241 -425 -36 -48 -68 -98 -71 -110 -9 -34 2 -53 30 -53 47
0 106 77 280 368 53 89 101 162 105 162 16 0 21 -77 21 -322 0 -205 -3 -255
-16 -288 -20 -49 -15 -153 7 -176 20 -20 46 -9 65 28 26 49 34 185 34 565 l0
362 43 34 c71 58 198 142 280 187 81 44 97 61 97 104 0 56 -62 31 -278 -108
-74 -47 -138 -86 -143 -86 -5 0 -9 35 -10 78 -2 204 -16 439 -27 460 -14 24
-36 28 -65 11z"/>
<path d="M2685 4010 c-3 -5 -1 -10 4 -10 6 0 11 5 11 10 0 6 -2 10 -4 10 -3 0
-8 -4 -11 -10z"/>
<path d="M7361 3997 c-6 -8 -17 -47 -26 -87 -9 -40 -22 -98 -31 -127 -17 -58
-11 -113 12 -113 54 0 143 287 102 328 -16 16 -43 15 -57 -1z"/>
<path d="M9031 3976 c-9 -11 -8 -23 6 -53 16 -33 26 -41 83 -60 87 -30 154
-30 174 -1 25 36 5 52 -113 91 -124 41 -134 43 -150 23z"/>
<path d="M9750 3970 c-15 -15 -20 -33 -20 -77 0 -32 -7 -80 -15 -107 -20 -66
-19 -92 5 -116 31 -31 86 -26 154 15 56 34 183 143 199 171 10 18 -17 64 -38
64 -8 0 -50 -32 -92 -71 -74 -67 -119 -96 -131 -84 -3 3 0 41 7 85 7 45 9 91
5 103 -13 41 -43 48 -74 17z"/>
<path d="M12146 3974 c-13 -12 -16 -41 -16 -148 l0 -133 -132 -81 c-72 -45
-135 -79 -139 -77 -4 3 -13 22 -19 43 -24 72 -52 131 -66 136 -19 7 -64 -37
-64 -63 0 -11 8 -39 18 -63 39 -90 38 -94 -20 -124 -29 -15 -89 -39 -133 -53
-65 -21 -83 -32 -102 -60 -17 -25 -20 -38 -12 -52 15 -29 57 -24 168 21 54 22
104 40 110 40 33 0 39 -71 16 -200 -14 -79 -14 -86 2 -97 21 -16 25 -16 47 0
22 16 42 112 52 251 l7 98 66 43 c99 64 179 107 188 102 4 -3 5 -110 2 -239
-4 -128 -7 -376 -8 -550 l-1 -317 -27 -26 c-23 -20 -26 -28 -17 -43 17 -26 59
-38 88 -24 46 21 48 49 55 667 4 429 9 586 18 601 7 12 48 52 92 88 97 80 109
98 86 132 -23 36 -52 30 -108 -26 -27 -27 -53 -47 -57 -45 -4 2 -10 46 -12 97
-5 73 -9 94 -24 105 -23 17 -39 16 -58 -3z"/>
<path d="M2450 3975 c0 -2 10 -10 23 -16 20 -11 21 -11 8 4 -13 16 -31 23 -31
12z"/>
<path d="M2040 3961 c8 -6 28 -11 44 -11 39 0 31 6 -19 14 -29 5 -36 4 -25 -3z"/>
<path d="M2380 3936 c0 -16 21 -56 30 -56 6 0 4 12 -5 30 -14 27 -25 38 -25
26z"/>
<path d="M2030 3920 c8 -5 22 -9 30 -9 10 0 8 3 -5 9 -27 12 -43 12 -25 0z"/>
<path d="M2206 3905 c-26 -22 -27 -25 -10 -31 11 -4 22 -9 26 -11 3 -1 4 6 1
17 -3 11 0 27 7 35 18 22 9 18 -24 -10z"/>
<path d="M3310 3915 c0 -8 4 -15 10 -15 5 0 7 7 4 15 -4 8 -8 15 -10 15 -2 0
-4 -7 -4 -15z"/>
<path d="M2080 3906 c0 -2 7 -6 15 -10 8 -3 15 -1 15 4 0 6 -7 10 -15 10 -8 0
-15 -2 -15 -4z"/>
<path d="M2969 3883 c-3 -18 -2 -38 3 -45 4 -7 8 -84 8 -170 0 -143 -2 -160
-19 -177 -14 -14 -16 -21 -7 -24 9 -4 12 -29 10 -89 l-2 -83 8 70 c5 39 12
161 16 273 6 195 8 204 28 213 20 8 19 9 -4 6 -20 -2 -26 3 -30 28 l-6 30 -5
-32z"/>
<path d="M3380 3882 c24 -33 19 -57 -11 -49 -11 3 -17 1 -13 -4 7 -12 44 -12
44 1 0 16 53 -8 72 -33 10 -12 18 -16 18 -9 0 12 -11 24 -71 77 -51 46 -64 52
-39 17z"/>
<path d="M10920 3824 c-198 -122 -219 -132 -305 -146 -78 -13 -79 -13 -86 -46
-4 -19 -4 -46 1 -60 6 -23 12 -26 36 -24 43 5 182 67 285 128 50 30 95 54 101
54 5 0 6 -10 2 -22 -9 -31 -128 -286 -221 -478 -118 -242 -153 -319 -153 -338
0 -22 19 -42 40 -42 36 0 105 100 134 195 27 88 105 240 117 228 7 -7 7 -90 0
-249 -6 -132 -11 -265 -11 -296 0 -58 0 -58 30 -58 24 0 35 8 56 40 22 32 36
43 73 52 60 15 143 98 183 184 69 147 53 296 -28 268 -10 -4 -58 -45 -106 -92
-48 -47 -90 -83 -94 -80 -3 4 -2 71 4 150 6 83 6 150 1 160 -5 9 -22 19 -39
23 -16 4 -30 10 -30 14 0 5 36 89 81 187 133 295 124 270 111 299 -8 16 -20
25 -35 25 -12 0 -79 -34 -147 -76z m220 -782 c0 -35 -85 -179 -111 -187 -47
-15 -43 21 12 102 32 46 88 113 95 113 2 0 4 -13 4 -28z"/>
<path d="M2385 3860 c-13 -6 -15 -9 -5 -9 8 0 22 4 30 9 18 12 2 12 -25 0z"/>
<path d="M3305 3830 c-3 -6 -11 -8 -16 -5 -5 4 -9 1 -9 -5 0 -6 12 -10 28 -8
15 2 26 7 25 13 -2 14 -20 18 -28 5z"/>
<path d="M1880 3785 c0 -27 3 -45 7 -41 7 7 5 77 -3 85 -2 2 -4 -17 -4 -44z"/>
<path d="M1835 3769 c-35 -98 -43 -132 -26 -113 13 14 44 114 37 121 -3 3 -8
0 -11 -8z"/>
<path d="M3272 3770 c35 -21 58 -75 58 -137 0 -66 -34 -183 -56 -196 -8 -4
-14 -13 -14 -20 0 -7 -17 -33 -37 -59 -21 -26 -60 -77 -88 -115 -27 -37 -56
-72 -62 -76 -7 -4 -31 -34 -52 -66 -22 -31 -56 -70 -76 -85 -20 -15 -55 -46
-78 -67 -23 -21 -45 -39 -49 -39 -5 0 -8 -7 -8 -15 0 -8 -5 -15 -12 -15 -6 0
-8 -3 -5 -7 8 -8 107 37 107 49 0 4 6 8 14 8 7 0 19 6 25 14 7 8 27 17 45 20
19 4 40 14 47 23 12 15 12 16 -3 10 -56 -22 -54 -22 -33 4 11 13 29 33 40 45
11 11 31 34 45 50 14 16 61 70 105 119 44 50 98 123 120 163 22 39 45 72 51
72 6 0 31 -7 54 -15 47 -16 56 -14 47 10 -4 8 -18 15 -35 15 -53 0 -62 16 -47
88 7 35 16 70 19 77 3 8 2 17 -3 19 -4 3 -8 20 -9 38 -1 35 -35 73 -58 64 -7
-3 -20 4 -30 15 -9 10 -22 19 -28 19 -6 0 -3 -5 6 -10z"/>
<path d="M3495 3752 c4 -12 18 -35 32 -50 l26 -27 -16 30 c-8 17 -23 39 -32
50 -16 20 -16 20 -10 -3z"/>
<path d="M5395 3761 c-24 -5 -49 -32 -128 -136 -89 -117 -141 -176 -394 -443
l-73 -77 0 -62 c0 -35 2 -63 4 -63 2 0 104 106 226 236 123 130 233 240 246
244 27 11 525 -16 570 -30 17 -6 49 -10 72 -10 86 0 138 92 59 104 -18 3 -160
12 -316 20 -221 11 -287 18 -298 29 -13 13 -8 23 41 80 31 37 56 73 56 81 0
21 -30 33 -65 27z"/>
<path d="M8521 3739 c-11 -18 -17 -38 -14 -46 7 -17 44 -33 78 -33 14 0 49
-12 79 -27 46 -22 57 -24 70 -14 21 18 20 54 -1 79 -21 25 -132 72 -168 72
-18 0 -31 -9 -44 -31z"/>
<path d="M9225 3680 c-77 -44 -162 -87 -189 -95 -64 -19 -92 -38 -111 -76 -21
-40 -5 -63 37 -55 85 17 440 216 446 250 3 16 -23 56 -37 56 -3 0 -69 -36
-146 -80z"/>
<path d="M3560 3650 c5 -10 10 -30 10 -44 0 -22 34 -65 84 -104 9 -7 14 -17
11 -23 -4 -5 -1 -9 4 -9 23 0 9 28 -33 62 -36 30 -45 45 -50 82 -4 25 -13 47
-22 50 -11 4 -12 2 -4 -14z"/>
<path d="M1776 3604 c-9 -36 1 -43 14 -10 12 33 12 36 1 36 -5 0 -12 -12 -15
-26z"/>
<path d="M3430 3619 c8 -5 29 -17 45 -25 l30 -15 -30 25 c-16 14 -37 26 -45
26 -13 0 -13 -1 0 -11z"/>
<path d="M6814 3593 c-4 -20 -2 -43 3 -52 17 -26 146 -100 176 -101 64 0 88
39 40 64 -16 8 -59 39 -96 70 -84 68 -113 73 -123 19z"/>
<path d="M9820 3551 c-27 -51 -5 -81 60 -81 26 0 49 -3 52 -6 3 -3 -14 -48
-38 -100 -24 -51 -44 -105 -44 -118 0 -25 41 -66 67 -66 8 0 27 -7 43 -15 28
-14 30 -20 30 -68 0 -47 -4 -57 -32 -83 -18 -17 -49 -41 -68 -54 -52 -35 -60
-49 -60 -110 0 -104 38 -190 85 -190 55 0 92 58 131 204 18 67 41 118 88 196
80 133 109 198 101 228 -11 43 -45 23 -91 -53 -24 -38 -48 -70 -54 -70 -6 0
-21 18 -33 40 -14 24 -37 47 -60 58 -44 22 -46 39 -13 105 33 66 50 126 42
156 -8 30 -53 46 -138 46 -46 0 -59 -4 -68 -19z m127 -723 c-15 -36 -34 -47
-43 -23 -7 18 22 55 43 55 11 0 11 -5 0 -32z"/>
<path d="M3636 3438 c-9 -12 -16 -34 -15 -48 1 -25 1 -24 9 4 5 15 17 37 26
47 9 10 12 19 6 19 -6 0 -18 -10 -26 -22z"/>
<path d="M9151 3413 c-24 -20 -64 -169 -75 -283 -4 -36 -12 -85 -18 -110 -18
-73 -77 -221 -108 -270 -16 -25 -36 -75 -45 -112 -10 -37 -22 -71 -29 -76 -16
-13 -238 -24 -255 -13 -12 8 -8 21 23 72 78 131 73 191 -28 325 -7 8 2 38 27
91 53 112 47 162 -23 198 -47 24 -97 20 -117 -11 -22 -34 -9 -54 48 -76 54
-20 54 -27 -12 -124 -27 -40 -49 -82 -49 -93 0 -19 75 -101 92 -101 4 0 15
-14 23 -31 16 -29 15 -33 -10 -83 -37 -74 -100 -143 -154 -170 -66 -34 -87
-60 -75 -94 12 -32 19 -33 286 -13 156 12 209 11 450 -4 374 -24 792 -25 965
-2 73 10 141 20 150 24 31 11 63 46 63 69 0 58 -19 66 -84 35 -76 -35 -325
-54 -611 -47 -323 9 -587 24 -597 34 -7 7 130 393 144 408 4 3 24 -6 45 -20
50 -35 84 -33 128 6 97 85 149 319 81 364 -20 12 -29 12 -75 -2 -29 -8 -55
-13 -58 -10 -3 3 -9 27 -14 53 -8 43 -36 83 -59 83 -4 0 -17 -8 -29 -17z m181
-236 c-4 -34 -38 -117 -59 -139 -26 -29 -51 -22 -58 15 -9 49 14 108 54 134
44 30 67 26 63 -10z"/>
<path d="M1356 3374 c-11 -8 -16 -14 -10 -14 13 0 39 18 34 24 -3 2 -14 -2
-24 -10z"/>
<path d="M3628 3333 c7 -12 12 -36 12 -54 0 -24 3 -30 11 -22 14 14 3 67 -18
85 -15 12 -15 11 -5 -9z"/>
<path d="M1851 3275 c-2 -22 -3 -73 -4 -113 -1 -65 -3 -72 -19 -66 -10 3 -18
0 -18 -6 0 -6 4 -9 9 -6 10 7 61 -31 61 -45 0 -13 51 -81 57 -75 7 6 -23 59
-52 95 l-27 31 20 25 c11 13 23 21 27 17 5 -4 5 -2 2 4 -4 6 0 20 8 30 8 10
15 23 15 28 0 7 -9 -3 -47 -53 -10 -13 -19 21 -24 92 -3 48 -7 65 -8 42z"/>
<path d="M5381 3244 c-20 -25 -24 -40 -36 -136 -3 -25 -11 -51 -18 -56 -15
-12 -179 -68 -227 -77 -37 -7 -114 -48 -125 -66 -12 -19 26 -49 62 -49 19 0
90 18 159 41 69 22 129 38 132 34 9 -9 15 -520 7 -562 -8 -46 -23 -41 -36 12
-13 52 -27 65 -44 41 -10 -14 -10 -28 -1 -69 33 -139 102 -183 148 -94 18 36
21 68 29 271 4 127 8 280 9 340 l0 108 31 27 c103 88 119 105 119 127 0 47
-74 53 -109 8 -24 -31 -31 -22 -31 42 0 29 -3 59 -6 68 -9 24 -40 19 -63 -10z"/>
<path d="M3254 3245 c21 -16 32 -13 21 4 -3 6 -14 11 -23 11 -15 -1 -15 -2 2
-15z"/>
<path d="M3438 3211 c-20 -20 -76 -56 -125 -80 -48 -24 -90 -47 -93 -50 -3 -3
-17 -12 -32 -20 -16 -8 -26 -16 -24 -19 3 -2 17 3 33 12 15 8 46 24 68 35 22
11 51 26 65 34 14 8 40 22 59 32 19 10 42 26 52 36 24 24 46 24 59 0 8 -16 4
-25 -21 -51 -17 -17 -29 -33 -27 -35 3 -3 21 11 41 31 l36 37 35 -29 c28 -23
34 -34 30 -54 -3 -14 -10 -26 -15 -28 -20 -8 -7 -19 17 -16 19 2 42 -10 80
-39 29 -23 53 -45 53 -49 1 -4 -23 -18 -51 -32 -29 -14 -46 -24 -38 -22 8 3
40 12 70 22 30 9 61 18 67 20 14 4 7 28 -17 59 -16 21 -95 85 -104 85 -13 0
-46 41 -52 65 -3 14 -12 25 -19 25 -7 0 -24 9 -39 21 -14 11 -31 17 -37 13 -8
-5 -9 -3 -4 6 4 7 2 16 -6 21 -18 12 -18 12 -61 -30z m137 -42 c11 -17 -1 -21
-15 -4 -8 9 -8 15 -2 15 6 0 14 -5 17 -11z"/>
<path d="M3660 3242 c0 -9 71 -34 78 -27 5 5 -53 35 -68 35 -5 0 -10 -4 -10
-8z"/>
<path d="M1949 3213 c-13 -16 -12 -17 4 -4 16 13 21 21 13 21 -2 0 -10 -8 -17
-17z"/>
<path d="M3750 3206 c0 -3 29 -20 65 -39 36 -19 65 -31 65 -27 0 5 -21 18 -47
31 -27 12 -56 26 -65 31 -10 5 -18 7 -18 4z"/>
<path d="M1930 3165 c-7 -8 -8 -15 -2 -15 5 0 15 7 22 15 7 8 8 15 2 15 -5 0
-15 -7 -22 -15z"/>
<path d="M2090 3170 c-13 -9 -13 -11 0 -20 8 -5 20 -10 25 -10 6 0 4 4 -4 9
-7 5 -10 14 -7 20 9 13 6 14 -14 1z"/>
<path d="M1130 3127 c0 -9 -7 -17 -15 -17 -14 0 -14 -3 0 -29 25 -50 38 -49
33 3 -5 45 -18 77 -18 43z"/>
<path d="M2130 3126 c0 -2 7 -7 16 -10 8 -3 12 -2 9 4 -6 10 -25 14 -25 6z"/>
<path d="M3890 3125 c0 -4 14 -18 31 -33 18 -14 38 -41 46 -60 8 -19 17 -32
19 -29 11 11 -27 73 -61 100 -19 15 -35 25 -35 22z"/>
<path d="M7392 3118 c-18 -18 -15 -52 8 -80 21 -27 320 -208 459 -277 46 -24
106 -60 133 -82 64 -51 94 -51 107 -3 5 19 8 41 5 48 -5 14 -147 98 -249 148
-67 33 -312 182 -384 234 -37 27 -61 30 -79 12z"/>
<path d="M1055 3094 c-9 -15 -12 -23 -6 -20 11 7 35 46 28 46 -3 0 -12 -12
-22 -26z"/>
<path d="M2205 3076 c17 -13 32 -22 35 -19 6 5 -41 42 -55 43 -5 0 4 -11 20
-24z"/>
<path d="M3390 3060 c-19 -16 -41 -30 -47 -30 -7 0 -13 -4 -13 -9 0 -5 -36
-21 -80 -37 -73 -25 -122 -54 -91 -54 6 0 11 5 11 12 0 6 6 4 13 -6 11 -16 24
-18 76 -14 67 5 64 -2 -14 -33 -22 -8 -39 -20 -38 -25 1 -5 -10 -10 -24 -11
-39 -2 -47 -17 -32 -52 8 -17 17 -31 21 -31 7 0 72 28 183 79 33 16 93 43 133
61 84 39 100 58 72 87 -14 16 -16 23 -7 32 16 16 -17 3 -100 -39 -71 -36 -209
-68 -238 -56 -18 8 -18 9 7 16 46 13 208 115 208 131 0 13 -1 12 -40 -21z"/>
<path d="M2491 3043 c-10 -26 -10 -27 4 -9 8 11 15 23 15 28 0 15 -7 8 -19
-19z"/>
<path d="M2290 3019 c0 -5 5 -7 10 -4 6 3 10 8 10 11 0 2 -4 4 -10 4 -5 0 -10
-5 -10 -11z"/>
<path d="M3078 3013 c7 -3 16 -2 19 1 4 3 -2 6 -13 5 -11 0 -14 -3 -6 -6z"/>
<path d="M2450 2969 c-7 -11 -18 -18 -25 -15 -8 3 -17 0 -21 -6 -4 -7 -3 -8 4
-4 41 25 -22 -105 -82 -170 -20 -22 -36 -43 -36 -48 0 -18 81 81 113 136 17
32 38 58 45 58 7 0 29 -7 49 -15 20 -8 38 -13 41 -11 4 5 -64 36 -79 36 -12 0
-11 17 1 41 6 10 8 19 6 19 -3 0 -10 -9 -16 -21z"/>
<path d="M3980 2964 c0 -27 -42 -113 -73 -150 -34 -40 -35 -55 -3 -25 14 13
37 48 52 77 31 61 44 68 44 24 0 -16 5 -30 10 -30 12 0 12 4 -3 62 -14 52 -27
72 -27 42z"/>
<path d="M963 2925 c-6 -11 -14 -36 -17 -55 l-7 -35 21 40 c21 41 25 89 3 50z"/>
<path d="M3085 2919 c-16 -11 -45 -22 -64 -25 -19 -4 -46 -13 -60 -20 -14 -8
-34 -14 -43 -14 -9 0 -19 -4 -23 -9 -6 -11 43 1 130 31 95 33 119 45 104 50
-8 3 -27 -3 -44 -13z"/>
<path d="M3821 2924 c-1 -12 -8 -27 -16 -34 -17 -14 -20 -30 -6 -30 12 0 34
56 28 72 -3 7 -6 3 -6 -8z"/>
<path d="M1976 2911 c5 -4 36 -30 69 -56 32 -26 66 -54 74 -62 20 -21 61 -46
66 -42 7 8 -193 168 -209 169 -6 0 -6 -3 0 -9z"/>
<path d="M2550 2891 c0 -5 7 -11 15 -15 8 -3 15 -1 15 3 0 5 -7 11 -15 15 -8
3 -15 1 -15 -3z"/>
<path d="M3585 2890 c-3 -5 -2 -10 4 -10 5 0 13 5 16 10 3 6 2 10 -4 10 -5 0
-13 -4 -16 -10z"/>
<path d="M1895 2863 c-14 -16 -36 -43 -48 -60 -12 -18 -25 -33 -29 -33 -9 0
-79 45 -99 65 -24 23 -32 18 -57 -33 -21 -42 -21 -44 -3 -22 11 14 21 29 21
33 0 14 42 3 53 -14 7 -11 7 -21 -2 -30 -43 -51 -80 -132 -52 -114 5 3 12 1
16 -5 3 -5 -1 -10 -10 -10 -12 0 -15 -6 -11 -20 3 -11 9 -29 12 -40 3 -11 10
-18 15 -14 6 3 18 0 27 -7 9 -8 7 -2 -5 12 -13 14 -23 30 -23 36 0 13 23 23
54 23 17 0 29 15 56 69 19 38 38 67 43 64 4 -2 7 7 7 21 0 14 5 26 10 26 6 0
10 6 10 14 0 8 6 16 14 19 14 6 42 47 32 47 -3 0 -17 -12 -31 -27z m-107 -89
c28 -19 28 -36 0 -86 -21 -37 -25 -39 -58 -33 -46 9 -47 11 -27 43 10 15 25
42 34 60 19 37 21 37 51 16z"/>
<path d="M2604 2862 c-28 -24 -80 -60 -238 -160 -56 -35 -93 -39 -88 -8 2 11
-1 15 -8 11 -6 -4 -19 0 -28 7 -9 8 -24 18 -32 22 -8 4 -3 -2 13 -14 15 -12
27 -30 27 -41 0 -12 5 -16 15 -13 9 4 15 0 15 -10 0 -26 18 -19 112 44 50 33
94 60 99 60 9 0 6 -21 -10 -75 -16 -54 -255 -345 -284 -345 -5 0 -4 7 3 15 9
10 9 15 1 15 -6 0 -11 -3 -11 -8 0 -15 -92 -112 -107 -112 -9 0 -13 6 -10 14
3 8 0 17 -7 19 -7 3 -33 46 -58 96 l-45 90 36 12 c20 6 52 21 71 33 19 12 53
30 75 41 22 11 44 24 50 28 5 4 25 19 44 32 20 15 28 25 19 25 -8 0 -26 -8
-39 -19 -13 -10 -39 -26 -57 -35 -32 -17 -34 -16 -63 9 -17 14 -36 25 -42 25
-6 0 4 -13 23 -29 l34 -28 -41 -26 c-23 -14 -74 -37 -114 -50 -40 -13 -75 -29
-77 -37 -3 -9 1 -11 14 -5 46 18 49 17 68 -34 10 -27 24 -55 32 -62 8 -6 19
-31 25 -55 6 -24 15 -41 20 -38 5 3 9 -4 9 -16 0 -34 27 -34 71 2 58 46 227
215 247 247 24 38 124 174 139 189 7 7 13 22 13 33 0 10 4 19 10 19 5 0 7 6 4
14 -6 16 41 56 67 56 11 0 19 4 19 9 0 5 -10 7 -22 4 -19 -5 -17 0 15 31 20
20 37 38 37 41 0 11 -17 3 -46 -23z"/>
<path d="M2750 2860 c-9 -6 -10 -10 -3 -10 6 0 15 5 18 10 8 12 4 12 -15 0z"/>
<path d="M3515 2859 c-11 -17 0 -20 21 -4 17 13 17 14 2 15 -9 0 -20 -5 -23
-11z"/>
<path d="M5627 2852 c-10 -10 -17 -22 -17 -25 0 -10 89 -52 160 -75 36 -12
167 -46 292 -77 214 -53 229 -55 256 -41 46 24 52 59 13 83 -10 6 -76 23 -147
38 -71 14 -207 46 -302 70 -193 50 -231 54 -255 27z"/>
<path d="M2680 2835 c-19 -7 -28 -14 -20 -14 8 0 29 6 45 14 39 17 21 18 -25
0z"/>
<path d="M2845 2834 c-20 -15 -12 -17 19 -5 11 4 15 10 10 13 -5 4 -18 0 -29
-8z"/>
<path d="M3465 2840 c-8 -13 5 -13 25 0 13 8 13 10 -2 10 -9 0 -20 -4 -23 -10z"/>
<path d="M3755 2839 c-11 -17 1 -21 15 -4 8 9 8 15 2 15 -6 0 -14 -5 -17 -11z"/>
<path d="M3820 2835 c-7 -9 -11 -18 -8 -20 3 -3 11 1 18 10 7 9 11 18 8 20 -3
3 -11 -1 -18 -10z"/>
<path d="M922 2817 c-9 -11 -10 -17 -2 -22 15 -9 23 -1 18 21 -3 15 -4 16 -16
1z"/>
<path d="M3410 2823 c-8 -3 -33 -13 -55 -23 -53 -25 -234 -90 -390 -142 -101
-34 -115 -40 -115 -51 0 -7 4 -7 12 1 17 17 58 15 58 -3 0 -13 42 -97 62 -122
5 -6 34 -109 65 -230 39 -150 56 -238 57 -281 0 -51 2 -61 12 -48 6 9 14 16
16 16 8 0 47 -94 64 -151 8 -26 21 -52 29 -59 19 -16 20 -70 1 -70 -7 0 -29 6
-47 14 -41 16 -109 27 -109 18 0 -13 36 -30 76 -38 22 -4 51 -13 66 -20 15 -8
44 -14 65 -14 73 0 110 -17 126 -58 9 -20 16 -31 16 -24 1 7 -4 23 -10 34 -8
15 -8 22 1 28 9 5 9 9 1 14 -16 10 -13 81 4 96 10 8 33 10 72 6 39 -4 51 -3
38 3 -11 5 -46 10 -77 10 l-58 1 0 31 c0 27 2 30 15 19 10 -9 15 -9 15 -1 0 6
7 11 15 11 8 0 15 5 15 11 0 8 30 10 103 6 71 -4 91 -3 67 3 -49 13 -159 14
-197 2 -27 -9 -32 -7 -36 8 -3 13 1 20 14 22 11 2 19 8 19 13 -1 6 -10 9 -21
7 -20 -3 -20 1 -16 125 4 120 22 215 49 249 4 6 29 14 54 18 25 3 60 12 77 20
18 8 39 16 47 19 12 4 11 6 -4 12 -12 5 -45 -1 -90 -17 l-71 -25 0 191 c0 205
-7 376 -15 375 -3 0 -12 -3 -20 -6z"/>
<path d="M2798 2813 c7 -3 16 -2 19 1 4 3 -2 6 -13 5 -11 0 -14 -3 -6 -6z"/>
<path d="M3691 2779 c-24 -22 -41 -43 -37 -46 3 -4 6 -1 6 5 0 7 4 12 9 12 13
0 76 58 70 65 -3 2 -25 -13 -48 -36z"/>
<path d="M2729 2790 l-24 -21 35 17 c43 21 47 24 28 24 -9 0 -26 -9 -39 -20z"/>
<path d="M4011 2788 c0 -13 4 -32 9 -43 7 -16 9 -12 7 18 0 21 -5 41 -9 43 -4
3 -8 -5 -7 -18z"/>
<path d="M5099 2718 c-34 -51 -91 -123 -127 -161 -61 -64 -64 -68 -49 -90 41
-62 104 -8 266 231 51 75 52 105 4 110 -30 3 -35 -2 -94 -90z"/>
<path d="M3760 2775 c-8 -9 -8 -15 -2 -15 12 0 26 19 19 26 -2 2 -10 -2 -17
-11z"/>
<path d="M904 2754 c3 -9 6 -18 6 -20 0 -3 5 -2 10 1 16 10 12 35 -6 35 -11 0
-14 -5 -10 -16z"/>
<path d="M3832 2725 c-18 -19 -29 -35 -24 -35 12 0 62 50 62 61 0 13 -2 12
-38 -26z"/>
<path d="M1886 2742 c115 -97 126 -105 109 -79 -17 27 -95 87 -111 87 -5 0 -4
-4 2 -8z"/>
<path d="M2820 2736 c-25 -7 -59 -20 -75 -29 -17 -8 -61 -25 -98 -37 -37 -12
-69 -26 -73 -31 -3 -5 -3 -23 1 -39 5 -25 12 -30 36 -30 16 0 59 13 96 29 38
16 96 39 131 51 55 20 62 25 62 49 0 25 -16 52 -29 50 -4 0 -26 -6 -51 -13z"/>
<path d="M880 2727 c0 -8 7 -17 15 -21 8 -3 15 -3 15 0 0 3 -7 12 -15 20 -13
13 -15 13 -15 1z"/>
<path d="M1612 2728 c1 -7 -2 -31 -6 -53 -10 -46 -9 -41 -31 -240 -9 -82 -23
-165 -31 -183 -20 -46 -18 -61 12 -74 21 -10 27 -9 35 3 12 19 11 76 -1 84
-14 9 -12 65 6 180 9 55 17 116 19 136 4 51 16 100 29 121 9 15 8 21 -4 28
-21 13 -31 12 -28 -2z"/>
<path d="M3690 2705 c-7 -8 -8 -15 -2 -15 5 0 15 7 22 15 7 8 8 15 2 15 -5 0
-15 -7 -22 -15z"/>
<path d="M2565 2700 c-3 -5 -2 -10 4 -10 5 0 13 5 16 10 3 6 2 10 -4 10 -5 0
-13 -4 -16 -10z"/>
<path d="M3550 2675 c-25 -19 -53 -35 -62 -35 -10 0 -18 -5 -18 -11 0 -6 8 -7
23 -2 12 4 39 7 59 6 30 -2 36 1 31 13 -3 8 4 26 17 40 35 36 4 29 -50 -11z"/>
<path d="M4022 2685 c0 -16 2 -22 5 -12 2 9 2 23 0 30 -3 6 -5 -1 -5 -18z"/>
<path d="M3730 2660 c-14 -10 -22 -21 -19 -24 2 -3 18 6 34 19 35 29 22 33
-15 5z"/>
<path d="M3620 2650 c-9 -6 -10 -10 -3 -10 6 0 15 5 18 10 8 12 4 12 -15 0z"/>
<path d="M3687 2633 c-4 -3 -7 -11 -7 -17 0 -6 5 -5 12 2 6 6 9 14 7 17 -3 3
-9 2 -12 -2z"/>
<path d="M3620 2585 c-14 -8 -20 -14 -14 -15 5 0 19 7 30 15 24 18 16 19 -16
0z"/>
<path d="M2784 2580 c-12 -5 -25 -14 -29 -20 -4 -7 7 -4 24 4 17 9 31 19 31
21 0 6 1 6 -26 -5z"/>
<path d="M867 2543 c-4 -3 -7 -13 -7 -22 1 -13 3 -13 11 2 11 19 8 33 -4 20z"/>
<path d="M1760 2532 c0 -5 7 -15 15 -22 8 -7 15 -8 15 -2 0 5 -7 15 -15 22 -8
7 -15 8 -15 2z"/>
<path d="M3888 2474 c-58 -60 -121 -104 -149 -104 -6 0 -22 -9 -36 -20 -14
-11 -36 -20 -49 -20 -27 0 -41 -18 -20 -26 16 -6 193 74 216 99 8 8 39 40 68
70 29 30 49 58 43 61 -5 3 -38 -24 -73 -60z"/>
<path d="M2605 2499 c-27 -15 -70 -38 -94 -50 -25 -12 -63 -35 -84 -50 -22
-16 -46 -29 -52 -29 -7 0 -18 -7 -25 -15 -11 -14 -10 -14 15 -5 39 15 41 7 6
-33 -17 -19 -31 -40 -31 -47 0 -8 -3 -10 -7 -7 -7 8 -19 -12 -61 -98 -17 -33
-42 -73 -56 -89 -45 -47 -64 -92 -65 -154 0 -31 -3 -70 -6 -86 -4 -17 -1 -32
6 -36 8 -6 8 -13 -1 -30 -7 -14 -9 -39 -5 -66 7 -48 5 -50 -78 -118 -41 -34
-49 -37 -64 -25 -13 11 -15 11 -9 1 10 -16 -26 -49 -125 -116 -36 -25 -84 -63
-106 -85 l-41 -39 -49 55 c-62 72 -85 93 -97 93 -5 0 -19 8 -30 19 -12 10 -42
21 -70 24 -36 3 -45 2 -33 -5 15 -8 3 -17 -65 -50 -45 -22 -113 -64 -149 -93
-74 -60 -66 -40 -85 -223 -4 -34 -10 -62 -15 -62 -18 0 8 -37 64 -92 l59 -57
-7 -165 -8 -165 27 -55 c26 -52 27 -63 28 -214 l1 -160 61 -6 c121 -12 348
-18 342 -8 -3 5 -74 12 -158 16 -156 7 -218 12 -225 19 -2 3 -4 53 -4 113 0
207 0 204 17 204 9 0 32 16 51 35 27 27 40 34 59 29 30 -8 90 28 115 70 10 17
19 47 19 66 0 30 9 44 58 92 33 31 65 70 72 87 10 24 19 31 41 31 24 0 29 5
35 36 4 19 4 69 2 110 -3 47 -1 77 6 83 6 5 31 12 56 16 24 4 54 13 65 20 11
7 30 16 42 20 21 6 21 3 -12 -69 -42 -90 -43 -108 -7 -132 36 -25 84 -46 90
-39 3 3 12 -1 20 -7 8 -7 46 -12 88 -13 67 0 74 -2 74 -20 1 -11 0 -83 0 -160
-3 -243 1 -518 6 -562 l6 -43 -64 -1 c-35 -1 -87 -2 -115 -2 -29 0 -53 -4 -53
-8 0 -5 137 -9 305 -9 168 0 305 4 305 8 0 4 -77 8 -170 9 -94 1 -175 5 -181
9 -12 7 -6 729 6 771 5 15 20 24 50 32 46 11 198 117 208 145 9 23 51 20 100
-7 23 -12 51 -22 62 -21 11 1 26 2 33 3 22 2 12 21 -11 21 -13 0 -45 11 -71
24 -27 14 -56 22 -65 19 -9 -3 -12 -1 -6 4 6 4 11 22 12 38 0 17 4 57 8 91 8
64 -11 204 -42 317 -15 53 -19 58 -40 54 -19 -4 -23 0 -23 22 0 44 12 73 26
67 8 -3 21 -3 29 0 12 5 11 9 -7 24 l-22 17 28 119 c15 66 33 144 39 174 12
52 14 55 60 71 50 18 77 36 77 50 0 5 -15 0 -32 -11 -18 -11 -45 -20 -61 -20
-30 0 -30 -5 -5 100 14 60 68 222 79 236 9 10 2 25 -10 23 -3 -1 -28 -14 -56
-30z m-68 -91 c-6 -43 -23 -113 -53 -218 -13 -47 -37 -159 -54 -250 -17 -91
-38 -190 -46 -220 -9 -31 -14 -64 -12 -75 2 -16 -5 -21 -42 -27 -47 -9 -126
-3 -150 12 -10 6 -12 40 -6 175 3 92 11 177 17 188 7 12 27 41 45 63 18 23 47
71 64 107 18 36 47 83 66 105 19 22 34 45 34 52 0 6 4 9 9 6 10 -7 24 20 25
48 1 12 17 28 45 43 58 30 64 29 58 -9z"/>
<path d="M2307 1868 c-14 -14 -16 -23 -8 -31 12 -12 51 17 51 40 0 19 -22 15
-43 -9z"/>
<path d="M2292 1811 c-11 -6 -11 -10 0 -18 16 -13 62 2 53 17 -7 12 -35 13
-53 1z"/>
<path d="M4042 2510 c0 -14 2 -19 5 -12 2 6 2 18 0 25 -3 6 -5 1 -5 -13z"/>
<path d="M1707 2499 c4 -13 8 -18 11 -10 2 7 -1 18 -6 23 -8 8 -9 4 -5 -13z"/>
<path d="M1816 2482 c-3 -5 1 -9 9 -9 8 0 12 4 9 9 -3 4 -7 8 -9 8 -2 0 -6 -4
-9 -8z"/>
<path d="M4041 2464 c0 -11 3 -14 6 -6 3 7 2 16 -1 19 -3 4 -6 -2 -5 -13z"/>
<path d="M4040 2426 c0 -9 5 -16 10 -16 6 0 10 4 10 9 0 6 -4 13 -10 16 -5 3
-10 -1 -10 -9z"/>
<path d="M841 2394 c0 -11 3 -14 6 -6 3 7 2 16 -1 19 -3 4 -6 -2 -5 -13z"/>
<path d="M1734 2311 c4 -42 11 -105 16 -141 14 -94 12 -180 -6 -311 -8 -63
-17 -169 -19 -237 -2 -92 -7 -129 -20 -148 -9 -13 -13 -29 -10 -34 3 -6 -1 -7
-9 -4 -9 3 -16 2 -16 -3 0 -5 7 -10 15 -10 17 0 47 38 89 111 16 27 36 51 46
53 14 4 16 11 10 46 -5 23 -11 173 -15 332 -4 160 -10 319 -14 355 l-6 65 -34
1 -33 1 6 -76z"/>
<path d="M4033 2382 c-8 -5 -9 -13 -3 -22 6 -8 10 -28 10 -44 0 -25 -3 -28
-22 -22 -28 7 -258 -15 -258 -25 0 -11 31 -14 113 -11 43 2 75 8 72 13 -4 5 6
9 22 9 19 0 24 -3 15 -9 -20 -12 5 -18 48 -11 25 4 34 10 30 20 -2 8 -5 34 -6
58 -2 48 -5 54 -21 44z"/>
<path d="M2890 2351 c-17 -17 -35 -31 -39 -31 -4 0 -24 -17 -44 -38 -21 -21
-53 -45 -72 -52 -19 -8 -35 -19 -35 -25 0 -8 18 -3 48 11 52 26 191 148 180
159 -4 4 -21 -7 -38 -24z"/>
<path d="M2278 2323 c-10 -2 -18 -9 -18 -14 0 -14 16 -11 30 6 7 8 11 14 9 14
-2 -1 -12 -3 -21 -6z"/>
<path d="M826 2305 c-3 -8 -1 -15 4 -15 6 0 10 7 10 15 0 8 -2 15 -4 15 -2 0
-6 -7 -10 -15z"/>
<path d="M1952 2257 c-10 -12 -7 -111 4 -128 2 -4 9 -54 15 -111 5 -56 16
-113 24 -124 8 -12 15 -41 17 -65 3 -36 5 -29 11 36 4 44 12 88 17 97 6 10 10
23 10 30 0 7 7 26 15 41 8 15 9 25 4 21 -6 -3 -17 -20 -25 -38 l-13 -31 -2 35
c-3 86 -16 198 -25 233 -6 20 -37 23 -52 4z"/>
<path d="M2190 2245 c-19 -22 -8 -25 13 -3 9 10 13 18 8 18 -5 0 -14 -7 -21
-15z"/>
<path d="M2975 2249 c-12 -19 5 -23 22 -6 16 16 16 17 1 17 -9 0 -20 -5 -23
-11z"/>
<path d="M4061 2214 c0 -11 3 -14 6 -6 3 7 2 16 -1 19 -3 4 -6 -2 -5 -13z"/>
<path d="M2891 2169 c-28 -27 -51 -55 -51 -62 0 -6 27 15 60 48 33 33 60 61
60 62 0 13 -25 -5 -69 -48z"/>
<path d="M2155 2200 c-3 -5 -1 -10 4 -10 6 0 11 5 11 10 0 6 -2 10 -4 10 -3 0
-8 -4 -11 -10z"/>
<path d="M4072 2138 c1 -32 5 -63 10 -70 10 -17 9 69 -2 102 -7 19 -8 11 -8
-32z"/>
<path d="M2129 2163 c-13 -16 -12 -17 4 -4 9 7 17 15 17 17 0 8 -8 3 -21 -13z"/>
<path d="M2097 2103 l-17 -38 20 24 c11 13 20 29 20 37 0 22 -5 17 -23 -23z"/>
<path d="M2786 2063 c-13 -21 -21 -40 -18 -43 2 -3 7 1 9 8 3 7 16 26 30 42
14 17 20 30 14 30 -6 0 -21 -17 -35 -37z"/>
<path d="M4077 2035 c-4 -8 -2 -17 3 -20 6 -4 10 3 10 14 0 25 -6 27 -13 6z"/>
<path d="M2714 1985 c-9 -14 -24 -24 -34 -23 -18 3 -100 -49 -100 -63 0 -13
18 -11 27 4 9 13 73 51 73 43 0 -3 -9 -15 -20 -26 -11 -11 -20 -25 -20 -31 0
-12 109 101 110 114 0 16 -20 6 -36 -18z"/>
<path d="M2902 1965 c-45 -47 -49 -55 -29 -55 12 1 82 88 75 95 -2 2 -23 -16
-46 -40z"/>
<path d="M4076 1963 c-3 -21 -5 -69 -5 -108 1 -58 2 -64 9 -36 7 31 12 181 5
181 -1 0 -5 -17 -9 -37z"/>
<path d="M2620 1858 c0 -7 -19 -30 -41 -50 -23 -21 -35 -38 -27 -38 8 0 24 9
36 20 27 26 56 80 42 80 -5 0 -10 -6 -10 -12z"/>
<path d="M3451 1856 c3 -3 48 -13 100 -22 52 -8 103 -19 114 -24 28 -13 117
-32 123 -26 2 3 -9 8 -24 12 -16 4 -38 13 -49 20 -11 6 -45 15 -75 19 -30 4
-64 9 -75 11 -46 10 -120 16 -114 10z"/>
<path d="M793 1795 c0 -22 2 -30 4 -17 2 12 2 30 0 40 -3 9 -5 -1 -4 -23z"/>
<path d="M3800 1786 c0 -2 14 -6 30 -8 17 -3 30 -1 30 4 0 4 -13 8 -30 8 -16
0 -30 -2 -30 -4z"/>
<path d="M2012 1758 c-1 -14 -5 -35 -8 -45 -5 -14 -4 -15 5 -7 7 7 11 26 8 45
-3 28 -4 29 -5 7z"/>
<path d="M2740 1760 c-31 -26 -58 -34 -75 -20 -11 9 -22 7 -51 -6 -21 -10 -48
-17 -61 -16 -20 2 -23 -1 -17 -24 4 -17 2 -29 -7 -35 -11 -7 -9 -9 6 -9 17 0
26 -15 49 -85 26 -78 28 -93 22 -179 -4 -51 -11 -108 -16 -127 -14 -47 -13
-59 5 -59 8 0 15 -3 15 -8 0 -15 72 -31 91 -19 20 12 33 52 23 69 -4 5 -1 14
6 18 12 7 17 26 25 100 9 87 15 101 46 112 22 8 29 16 27 31 -2 11 -9 22 -16
25 -11 3 -12 0 -3 -16 9 -17 7 -21 -17 -28 -15 -4 -29 -8 -32 -9 -3 -1 -22 -9
-44 -18 -48 -21 -55 -21 -63 1 -4 9 -15 28 -25 42 -19 27 -52 115 -61 165 -5
30 -5 31 27 27 19 -2 37 1 40 7 12 18 41 13 63 -11 11 -13 35 -51 53 -85 18
-35 37 -63 43 -63 6 0 3 8 -5 18 -9 9 -30 45 -47 79 -17 34 -36 65 -42 68 -6
4 14 21 48 41 39 22 51 33 37 34 -12 0 -31 -9 -44 -20z"/>
<path d="M2826 1772 c14 -14 96 -43 102 -38 3 3 -4 8 -14 12 -10 3 -33 12 -51
20 -35 16 -52 18 -37 6z"/>
<path d="M3871 1776 c8 -8 88 -10 95 -3 4 4 -17 7 -46 7 -29 0 -51 -2 -49 -4z"/>
<path d="M3985 1770 c-4 -6 3 -10 14 -10 25 0 27 6 6 13 -8 4 -17 2 -20 -3z"/>
<path d="M4045 1769 c-11 -4 -14 -8 -7 -8 6 -1 12 -11 13 -23 0 -23 0 -23 10
1 13 32 8 40 -16 30z"/>
<path d="M3810 1761 c0 -14 41 -41 60 -40 9 0 6 4 -8 9 -12 5 -25 16 -28 25
-7 16 -24 21 -24 6z"/>
<path d="M794 1698 c7 -71 16 -108 26 -108 13 0 18 24 9 45 -4 11 -8 36 -8 56
-1 21 -8 42 -17 50 -15 12 -16 8 -10 -43z"/>
<path d="M2950 1729 c0 -5 9 -9 20 -9 11 0 20 2 20 4 0 2 -9 6 -20 9 -11 3
-20 1 -20 -4z"/>
<path d="M3011 1716 c2 -2 15 -9 29 -16 23 -12 24 -12 11 3 -7 10 -20 17 -29
17 -8 0 -13 -2 -11 -4z"/>
<path d="M3891 1716 c10 -9 69 -36 69 -32 0 6 -55 36 -66 36 -4 0 -5 -2 -3 -4z"/>
<path d="M3580 1701 c8 -6 31 -11 51 -11 20 0 66 -13 102 -30 71 -32 87 -36
87 -21 0 10 -18 17 -62 25 -14 2 -37 11 -50 19 -27 18 -152 35 -128 18z"/>
<path d="M4030 1685 c-10 -19 -19 -24 -34 -19 -17 4 -18 3 -6 -5 10 -7 15 -28
15 -66 0 -30 0 -55 -1 -55 -22 0 -127 48 -148 68 l-29 27 22 -33 c16 -23 35
-35 68 -43 54 -14 103 -53 103 -82 0 -14 3 -18 10 -11 6 6 4 29 -5 64 -9 35
-11 58 -5 66 10 10 31 106 26 111 -2 2 -9 -8 -16 -22z"/>
<path d="M1988 1647 c-3 -15 -1 -30 4 -33 16 -10 20 4 11 33 l-10 28 -5 -28z"/>
<path d="M2836 1621 c-4 -7 -3 -18 4 -26 20 -24 13 -199 -10 -230 -4 -5 -11
-20 -14 -32 -12 -38 12 -26 34 17 16 32 20 58 20 137 -1 96 -17 162 -34 134z"/>
<path d="M1386 1593 c4 -13 -9 -26 -43 -46 -88 -51 -172 -106 -191 -125 -10
-10 -34 -30 -55 -46 -20 -16 -37 -36 -37 -45 0 -10 -11 -50 -25 -89 -29 -82
-31 -98 -11 -80 8 7 12 16 9 21 -2 4 0 7 5 7 5 0 20 28 32 63 13 34 30 70 38
80 8 9 12 17 7 17 -4 0 -1 7 6 17 16 19 235 163 249 163 4 0 11 6 13 13 3 6 6
2 6 -10 1 -13 5 -23 10 -23 15 0 23 18 11 25 -5 3 -10 19 -10 35 0 16 -4 31
-9 34 -5 4 -7 -2 -5 -11z"/>
<path d="M827 1573 c-4 -3 -7 -11 -7 -17 0 -6 5 -5 12 2 6 6 9 14 7 17 -3 3
-9 2 -12 -2z"/>
<path d="M3430 1511 c0 -5 5 -13 10 -16 6 -3 10 -2 10 4 0 5 -4 13 -10 16 -5
3 -10 2 -10 -4z"/>
<path d="M841 1494 c-1 -15 40 -136 45 -131 2 2 -7 35 -20 73 -14 38 -25 64
-25 58z"/>
<path d="M3460 1477 c0 -4 9 -25 20 -47 35 -68 71 -228 71 -313 0 -71 -2 -79
-28 -103 -25 -23 -32 -25 -88 -19 -33 3 -91 8 -130 10 -38 3 -90 8 -115 12
-25 4 -54 7 -65 8 -11 1 -57 12 -103 25 -46 12 -85 20 -88 17 -4 -3 14 -11 37
-17 24 -6 62 -17 84 -25 23 -8 48 -15 57 -15 25 0 27 -7 38 -131 5 -63 16
-148 24 -189 16 -82 42 -280 38 -293 -5 -16 20 -192 29 -201 20 -21 21 36 5
188 -10 89 -24 202 -32 251 -8 50 -16 104 -19 120 -2 17 -7 78 -11 138 l-7
107 31 0 c52 0 70 -35 63 -117 -1 -13 3 -23 9 -23 8 0 11 22 9 63 l-2 62 107
-3 c116 -4 166 8 166 38 0 10 30 48 66 84 37 37 64 70 61 73 -4 3 -18 -9 -32
-26 -15 -17 -33 -31 -40 -31 -7 0 -19 -7 -26 -17 -12 -14 -15 -10 -21 38 -8
63 -11 78 -37 182 -17 64 -71 182 -71 154z"/>
<path d="M2950 1403 c-18 -65 -48 -132 -76 -168 -12 -16 -24 -37 -26 -45 -2
-8 -11 -21 -20 -28 -10 -7 -18 -19 -18 -26 0 -16 -22 -26 -55 -26 -13 0 -27
-4 -30 -10 -7 -12 -9 -11 80 -15 64 -3 67 -2 41 9 l-28 13 23 23 c13 13 18 19
10 15 -7 -4 -12 -4 -9 1 20 44 33 64 41 64 5 0 4 -7 -3 -15 -6 -8 -10 -20 -8
-26 6 -18 64 108 87 191 11 41 17 78 12 83 -4 4 -14 -14 -21 -40z"/>
<path d="M4007 1430 c-3 -11 -2 -20 3 -20 4 0 10 9 13 20 3 11 2 20 -3 20 -4
0 -10 -9 -13 -20z"/>
<path d="M3975 1390 c-3 -5 -2 -10 4 -10 5 0 13 5 16 10 3 6 2 10 -4 10 -5 0
-13 -4 -16 -10z"/>
<path d="M897 1344 c-4 -4 -7 -12 -7 -18 0 -6 5 -4 11 4 8 11 9 7 4 -17 -9
-47 0 -67 51 -109 l46 -37 -20 39 c-11 21 -32 50 -46 63 -25 24 -36 49 -16 36
14 -9 12 8 -3 29 -7 9 -16 14 -20 10z"/>
<path d="M3910 1340 c-8 -5 -10 -10 -5 -10 6 0 17 5 25 10 8 5 11 10 5 10 -5
0 -17 -5 -25 -10z"/>
<path d="M3859 1303 c-13 -17 -13 -17 6 -3 11 8 22 16 24 17 2 2 0 3 -6 3 -6
0 -17 -8 -24 -17z"/>
<path d="M3775 1244 l-30 -25 33 16 c17 8 32 20 32 25 0 14 -1 13 -35 -16z"/>
<path d="M3710 1205 c-7 -8 -8 -15 -2 -15 5 0 15 7 22 15 7 8 8 15 2 15 -5 0
-15 -7 -22 -15z"/>
<path d="M2888 1073 c7 -3 16 -2 19 1 4 3 -2 6 -13 5 -11 0 -14 -3 -6 -6z"/>
<path d="M3446 915 c3 -33 7 -120 10 -192 3 -73 9 -133 14 -133 12 0 11 212
-2 257 -6 21 -14 58 -19 83 -7 40 -7 38 -3 -15z"/>
<path d="M3463 540 c3 -11 2 -22 -3 -25 -4 -3 -8 -35 -7 -72 0 -38 -3 -78 -7
-91 -4 -12 -3 -22 2 -22 5 0 12 24 16 53 18 161 19 177 6 177 -7 0 -10 -8 -7
-20z"/>
<path d="M3430 280 c0 -22 -4 -40 -9 -40 -5 0 -14 -14 -20 -31 -6 -17 -15 -28
-21 -24 -6 4 -19 4 -28 0 -9 -4 -35 -9 -57 -10 -145 -10 -296 -15 -472 -15
-129 0 -203 -4 -203 -10 0 -10 571 -8 620 3 14 3 57 8 95 12 96 9 102 11 102
43 1 15 4 46 8 70 5 29 4 42 -4 42 -6 0 -11 -17 -11 -40z"/>
<path d="M1716 161 c-5 -8 245 -24 253 -15 2 2 2 6 -1 9 -9 9 -247 15 -252 6z"/>
</g>
</svg>
