<?xml version="1.0" standalone="no"?>
<!DOCTYPE svg PUBLIC "-//W3C//DTD SVG 20010904//EN"
 "http://www.w3.org/TR/2001/REC-SVG-20010904/DTD/svg10.dtd">
<svg version="1.0" xmlns="http://www.w3.org/2000/svg"
 width="512.000000pt" height="512.000000pt" viewBox="0 0 512.000000 512.000000"
 preserveAspectRatio="xMidYMid meet">

<g transform="translate(0.000000,512.000000) scale(0.100000,-0.100000)"
fill="#000000" stroke="none">
<path d="M2452 4163 l-23 -5 22 -19 c13 -11 34 -22 48 -25 39 -8 112 -35 150
-55 43 -23 49 -18 22 17 -11 15 -21 35 -21 45 0 10 -8 22 -17 27 -21 11 -148
21 -181 15z"/>
<path d="M2406 4122 c-3 -4 -28 -14 -55 -22 -28 -7 -51 -17 -51 -20 0 -7 -6
-8 -60 -13 -19 -1 -56 -17 -82 -35 -49 -33 -64 -51 -28 -32 10 6 23 9 27 8 4
-2 9 2 11 7 2 6 10 14 19 19 18 10 164 9 190 -1 12 -5 15 -2 10 10 -5 12 -1
17 12 17 21 0 44 23 34 33 -3 4 2 7 13 7 19 1 19 1 0 15 -22 17 -33 19 -40 7z"/>
<path d="M2409 4039 c-8 -5 -9 -9 -4 -10 6 -1 15 -3 20 -4 6 -2 21 -3 34 -4
22 -1 23 -4 17 -48 -7 -52 2 -53 14 -1 3 18 12 32 18 31 6 -2 10 6 9 17 -1 10
-4 17 -8 14 -4 -2 -26 0 -47 5 -22 4 -46 5 -53 0z"/>
<path d="M2536 4001 c-7 -10 52 -26 61 -17 8 8 3 12 -29 20 -15 3 -29 2 -32
-3z"/>
<path d="M2258 3993 c7 -3 16 -2 19 1 4 3 -2 6 -13 5 -11 0 -14 -3 -6 -6z"/>
<path d="M2686 3983 c-4 -4 -23 -6 -44 -5 -35 1 -36 1 -12 -10 14 -6 34 -13
44 -15 11 -2 25 -8 31 -13 6 -5 20 -11 31 -13 10 -2 27 -8 37 -12 30 -13 40 9
15 31 l-23 19 19 -22 c28 -34 4 -28 -29 7 -16 16 -31 28 -33 25 -3 -3 -10 0
-17 5 -7 5 -15 7 -19 3z"/>
<path d="M2043 3917 c-54 -81 -68 -110 -97 -201 -19 -60 -21 -76 -10 -76 8 0
14 7 14 16 0 8 5 12 10 9 6 -4 32 -2 58 4 26 6 57 12 69 14 12 2 26 7 30 11
11 12 -82 0 -106 -13 -41 -22 -54 -14 -48 29 7 51 75 190 93 190 8 0 17 14 21
30 3 17 12 30 20 30 8 0 11 5 8 10 -11 18 -19 11 -62 -53z"/>
<path d="M2138 3963 c7 -3 16 -2 19 1 4 3 -2 6 -13 5 -11 0 -14 -3 -6 -6z"/>
<path d="M2248 3963 c7 -3 16 -2 19 1 4 3 -2 6 -13 5 -11 0 -14 -3 -6 -6z"/>
<path d="M2526 3953 c-3 -3 -3 -10 0 -14 7 -12 34 -11 34 0 0 11 -26 22 -34
14z"/>
<path d="M2370 3930 c0 -6 7 -10 15 -10 8 0 15 2 15 4 0 2 -7 6 -15 10 -8 3
-15 1 -15 -4z"/>
<path d="M2675 3920 c-3 -5 -1 -10 4 -10 6 0 11 5 11 10 0 6 -2 10 -4 10 -3 0
-8 -4 -11 -10z"/>
<path d="M2100 3910 c0 -5 5 -10 10 -10 6 0 10 5 10 10 0 6 -4 10 -10 10 -5 0
-10 -4 -10 -10z"/>
<path d="M2456 3912 c-2 -4 -1 -14 3 -21 6 -10 10 -9 14 3 6 16 -8 32 -17 18z"/>
<path d="M2240 3902 c0 -5 7 -9 15 -9 8 0 12 4 9 9 -3 4 -9 8 -15 8 -5 0 -9
-4 -9 -8z"/>
<path d="M2526 3895 c-3 -8 -1 -15 4 -15 6 0 10 7 10 15 0 8 -2 15 -4 15 -2 0
-6 -7 -10 -15z"/>
<path d="M2825 3900 c3 -5 8 -10 11 -10 2 0 4 5 4 10 0 6 -5 10 -11 10 -5 0
-7 -4 -4 -10z"/>
<path d="M2295 3890 c-3 -5 -1 -10 4 -10 6 0 11 5 11 10 0 6 -2 10 -4 10 -3 0
-8 -4 -11 -10z"/>
<path d="M2770 3886 c0 -2 9 -6 20 -9 11 -3 18 -1 14 4 -5 9 -34 13 -34 5z"/>
<path d="M2851 3887 c2 -1 13 -9 24 -17 19 -14 19 -14 6 3 -7 9 -18 17 -24 17
-6 0 -8 -1 -6 -3z"/>
<path d="M2338 3873 c6 -2 18 -2 25 0 6 3 1 5 -13 5 -14 0 -19 -2 -12 -5z"/>
<path d="M2078 3853 c7 -3 16 -2 19 1 4 3 -2 6 -13 5 -11 0 -14 -3 -6 -6z"/>
<path d="M2410 3850 c0 -4 10 -10 23 -14 31 -8 39 -7 33 3 -7 11 -56 21 -56
11z"/>
<path d="M2671 3844 c0 -11 3 -14 6 -6 3 7 2 16 -1 19 -3 4 -6 -2 -5 -13z"/>
<path d="M2900 3857 c0 -3 16 -22 35 -43 35 -37 49 -36 17 1 -21 25 -52 49
-52 42z"/>
<path d="M2705 3840 c-3 -5 -1 -10 4 -10 6 0 11 5 11 10 0 6 -2 10 -4 10 -3 0
-8 -4 -11 -10z"/>
<path d="M2045 3790 c-8 -13 5 -13 25 0 13 8 13 10 -2 10 -9 0 -20 -4 -23 -10z"/>
<path d="M2205 3790 c-3 -5 -1 -10 4 -10 6 0 11 5 11 10 0 6 -2 10 -4 10 -3 0
-8 -4 -11 -10z"/>
<path d="M2005 3780 c-3 -5 -1 -10 4 -10 6 0 11 5 11 10 0 6 -2 10 -4 10 -3 0
-8 -4 -11 -10z"/>
<path d="M2398 3783 c7 -3 16 -2 19 1 4 3 -2 6 -13 5 -11 0 -14 -3 -6 -6z"/>
<path d="M2870 3781 c0 -5 5 -13 10 -16 6 -3 10 -2 10 4 0 5 -4 13 -10 16 -5
3 -10 2 -10 -4z"/>
<path d="M2430 3770 c0 -5 7 -10 15 -10 8 0 15 5 15 10 0 6 -7 10 -15 10 -8 0
-15 -4 -15 -10z"/>
<path d="M2690 3760 c0 -13 18 -22 24 -11 3 5 -1 11 -9 15 -8 3 -15 1 -15 -4z"/>
<path d="M2508 3743 c7 -3 16 -2 19 1 4 3 -2 6 -13 5 -11 0 -14 -3 -6 -6z"/>
<path d="M2551 3734 c0 -11 3 -14 6 -6 3 7 2 16 -1 19 -3 4 -6 -2 -5 -13z"/>
<path d="M2735 3740 c3 -5 8 -10 11 -10 2 0 4 5 4 10 0 6 -5 10 -11 10 -5 0
-7 -4 -4 -10z"/>
<path d="M2353 3718 c-2 -16 3 -19 20 -14 11 3 27 0 34 -6 10 -8 13 -6 13 6 0
9 -6 17 -12 18 -7 0 -17 2 -23 2 -5 1 -15 4 -20 8 -6 4 -12 -2 -12 -14z"/>
<path d="M2585 3719 c-4 -12 -12 -18 -21 -15 -8 3 -14 2 -14 -3 0 -5 9 -11 20
-14 13 -3 18 -11 14 -20 -3 -8 0 -18 7 -23 8 -4 10 -3 5 4 -4 7 -4 17 0 24 12
19 15 68 5 68 -5 0 -13 -9 -16 -21z"/>
<path d="M2226 3713 c-4 -9 7 -13 40 -13 52 0 51 16 -1 22 -22 2 -36 -1 -39
-9z"/>
<path d="M2440 3720 c0 -9 39 -25 45 -18 2 2 -7 8 -21 15 -13 6 -24 7 -24 3z"/>
<path d="M2320 3710 c0 -5 5 -10 11 -10 5 0 7 5 4 10 -3 6 -8 10 -11 10 -2 0
-4 -4 -4 -10z"/>
<path d="M2176 3701 c-14 -5 -16 -10 -8 -15 8 -5 12 -55 12 -167 l0 -159 -25
0 c-24 0 -24 1 -28 98 l-3 97 -2 -102 c-2 -107 -11 -125 -45 -95 -16 14 -17
14 -12 -1 6 -13 -5 -20 -54 -34 -41 -12 -64 -25 -72 -40 -9 -18 -15 -20 -26
-12 -10 9 -13 8 -13 -5 0 -9 5 -16 10 -16 6 0 10 -11 10 -25 0 -14 -4 -25 -10
-25 -5 0 -10 5 -10 12 0 6 -3 9 -6 6 -10 -11 25 -65 60 -92 32 -24 36 -33 38
-74 l1 -47 6 55 c4 30 3 59 -1 64 -10 13 -10 63 0 69 4 3 32 8 63 11 42 5 60
4 70 -7 23 -22 42 -25 83 -10 45 15 52 13 36 -16 -13 -26 -14 -26 -100 -2 -39
11 -70 17 -70 13 0 -10 48 -30 93 -37 20 -4 37 -12 37 -17 0 -6 9 -8 20 -5 10
3 21 0 24 -7 3 -8 5 -8 5 1 1 6 11 9 24 7 12 -2 16 -2 10 2 -27 12 -13 26 20
19 41 -9 89 -7 101 5 12 12 26 13 25 3 -4 -24 4 -33 29 -33 15 0 77 -2 139 -5
70 -3 114 -2 118 5 4 6 -16 10 -54 10 -84 0 -77 16 9 22 39 3 73 8 77 11 9 10
16 94 9 121 -7 28 -55 58 -99 61 -15 2 -33 7 -40 12 -6 6 -59 10 -116 11 -68
0 -107 5 -111 12 -5 9 -9 9 -14 1 -4 -6 -14 -11 -22 -11 -11 0 -14 19 -16 88
l-2 87 -3 -80 c-4 -82 -16 -112 -33 -85 -7 10 -12 11 -17 4 -5 -6 -16 -13 -25
-17 -15 -5 -18 0 -19 26 -2 31 -2 31 -6 4 -4 -22 -9 -28 -26 -25 -22 3 -22 6
-22 171 0 92 0 167 0 166 0 0 -9 -4 -19 -8z m-229 -463 c-3 -8 -6 -5 -6 6 -1
11 2 17 5 13 3 -3 4 -12 1 -19z m2 -50 c0 -31 -1 -31 -10 -10 -5 13 -7 28 -3
33 10 16 14 9 13 -23z m25 -44 c3 -8 2 -12 -4 -9 -6 3 -10 10 -10 16 0 14 7
11 14 -7z"/>
<path d="M2623 3695 c0 -8 4 -12 9 -9 5 3 6 10 3 15 -9 13 -12 11 -12 -6z"/>
<path d="M2132 3675 c0 -16 2 -22 5 -12 2 9 2 23 0 30 -3 6 -5 -1 -5 -18z"/>
<path d="M2515 3690 c4 -6 11 -8 16 -5 14 9 11 15 -7 15 -8 0 -12 -5 -9 -10z"/>
<path d="M2870 3690 c0 -5 5 -10 11 -10 5 0 7 5 4 10 -3 6 -8 10 -11 10 -2 0
-4 -4 -4 -10z"/>
<path d="M2243 3625 c0 -33 2 -45 4 -27 2 18 2 45 0 60 -2 15 -4 0 -4 -33z"/>
<path d="M2293 3645 c0 -22 2 -30 4 -17 2 12 2 30 0 40 -3 9 -5 -1 -4 -23z"/>
<path d="M2402 3655 c0 -16 2 -22 5 -12 2 9 2 23 0 30 -3 6 -5 -1 -5 -18z"/>
<path d="M2640 3670 c0 -5 5 -10 10 -10 6 0 10 5 10 10 0 6 -4 10 -10 10 -5 0
-10 -4 -10 -10z"/>
<path d="M2680 3670 c0 -5 5 -10 11 -10 5 0 7 5 4 10 -3 6 -8 10 -11 10 -2 0
-4 -4 -4 -10z"/>
<path d="M2930 3666 c0 -9 4 -15 9 -12 5 4 11 0 14 -6 2 -7 7 -10 11 -7 3 3
-3 14 -14 24 -18 17 -20 17 -20 1z"/>
<path d="M2830 3655 c7 -9 15 -13 17 -11 7 7 -7 26 -19 26 -6 0 -6 -6 2 -15z"/>
<path d="M2021 3644 c0 -11 3 -14 6 -6 3 7 2 16 -1 19 -3 4 -6 -2 -5 -13z"/>
<path d="M2710 3646 c0 -9 5 -16 10 -16 6 0 10 4 10 9 0 6 -4 13 -10 16 -5 3
-10 -1 -10 -9z"/>
<path d="M2989 3654 c-3 -24 4 -60 13 -69 6 -7 7 4 2 30 -7 40 -13 56 -15 39z"/>
<path d="M2652 3608 c-1 -20 -5 -45 -8 -55 -5 -17 -5 -17 6 0 6 9 9 34 7 55
l-4 37 -1 -37z"/>
<path d="M2740 3634 c0 -4 10 -15 23 -26 20 -18 22 -18 25 -3 2 9 2 18 0 20
-9 8 -48 15 -48 9z"/>
<path d="M2343 3590 c0 -25 2 -35 4 -22 2 12 2 32 0 45 -2 12 -4 2 -4 -23z"/>
<path d="M2931 3614 c0 -11 3 -14 6 -6 3 7 2 16 -1 19 -3 4 -6 -2 -5 -13z"/>
<path d="M2013 3570 c0 -30 2 -43 4 -27 2 15 2 39 0 55 -2 15 -4 2 -4 -28z"/>
<path d="M2122 3590 c0 -19 2 -27 5 -17 2 9 2 25 0 35 -3 9 -5 1 -5 -18z"/>
<path d="M2816 3613 c-11 -12 -6 -19 14 -19 11 0 20 3 20 7 0 10 -27 19 -34
12z"/>
<path d="M2062 3590 c0 -14 2 -19 5 -12 2 6 2 18 0 25 -3 6 -5 1 -5 -13z"/>
<path d="M2294 3500 c0 -58 1 -81 3 -52 2 28 2 76 0 105 -2 28 -3 5 -3 -53z"/>
<path d="M2713 3545 c0 -33 2 -45 4 -27 2 18 2 45 0 60 -2 15 -4 0 -4 -33z"/>
<path d="M1891 3542 c-17 -64 -25 -228 -13 -277 7 -31 8 -17 5 60 -3 64 -1 95
5 87 6 -9 11 18 15 80 3 51 4 94 3 95 -1 1 -8 -19 -15 -45z"/>
<path d="M2393 3540 c0 -30 2 -43 4 -27 2 15 2 39 0 55 -2 15 -4 2 -4 -28z"/>
<path d="M2521 3554 c0 -11 3 -14 6 -6 3 7 2 16 -1 19 -3 4 -6 -2 -5 -13z"/>
<path d="M2818 3558 c-2 -7 -1 -26 3 -43 l7 -30 1 34 c1 30 3 32 19 20 14 -11
13 -10 -2 9 -22 26 -23 26 -28 10z"/>
<path d="M2063 3495 c0 -38 2 -53 4 -32 2 20 2 52 0 70 -2 17 -4 1 -4 -38z"/>
<path d="M1957 3535 c-4 -8 -2 -17 3 -20 6 -4 10 3 10 14 0 25 -6 27 -13 6z"/>
<path d="M2762 3530 c0 -14 2 -19 5 -12 2 6 2 18 0 25 -3 6 -5 1 -5 -13z"/>
<path d="M2878 3503 c5 -25 6 -25 13 -8 11 29 10 35 -5 35 -9 0 -12 -8 -8 -27z"/>
<path d="M3001 3514 c0 -11 3 -14 6 -6 3 7 2 16 -1 19 -3 4 -6 -2 -5 -13z"/>
<path d="M2463 3475 c0 -27 2 -38 4 -22 2 15 2 37 0 50 -2 12 -4 0 -4 -28z"/>
<path d="M2522 3500 c0 -14 2 -19 5 -12 2 6 2 18 0 25 -3 6 -5 1 -5 -13z"/>
<path d="M2642 3490 c0 -14 2 -19 5 -12 2 6 2 18 0 25 -3 6 -5 1 -5 -13z"/>
<path d="M2916 3496 c3 -8 13 -17 22 -21 13 -5 13 -2 -3 15 -21 24 -26 25 -19
6z"/>
<path d="M2003 3460 c0 -25 2 -35 4 -22 2 12 2 32 0 45 -2 12 -4 2 -4 -23z"/>
<path d="M2978 3480 c17 -19 15 -33 -3 -26 -10 4 -15 -1 -15 -14 0 -11 5 -20
10 -20 6 0 10 6 10 13 0 8 3 8 9 -2 5 -8 7 -19 5 -26 -3 -6 2 -45 10 -86 8
-41 17 -100 21 -132 6 -57 6 -59 -17 -55 -22 3 -23 8 -29 98 l-5 95 -2 -83
c-1 -62 -5 -83 -14 -80 -7 3 -18 14 -23 25 -6 11 -16 18 -23 15 -21 -7 -39 16
-36 46 2 15 1 19 -2 10 -6 -21 -15 -23 -32 -6 -18 18 -16 -33 5 -105 20 -71 9
-112 -41 -158 -23 -22 -26 -28 -11 -23 18 5 18 4 4 -8 -9 -7 -30 -41 -47 -75
-18 -34 -36 -64 -40 -67 -9 -5 -7 -71 3 -112 6 -26 -45 -71 -138 -123 -59 -32
-167 -71 -200 -71 -41 0 -58 111 -42 278 9 96 13 112 33 113 10 1 8 4 -8 8
-37 11 -42 -11 -43 -184 -1 -123 2 -157 16 -189 9 -22 15 -41 12 -44 -3 -3
-26 15 -52 40 -91 87 -132 124 -182 164 -27 21 -55 50 -61 64 l-12 25 -10 -25
c-6 -14 -18 -56 -27 -95 -17 -67 -19 -70 -47 -70 -26 0 -30 4 -34 35 -4 27 -7
31 -13 17 -4 -10 -7 -26 -7 -35 0 -16 -23 -25 -127 -49 l-22 -5 21 63 c11 35
27 73 35 84 22 32 16 52 -8 27 -11 -13 -31 -59 -44 -104 -24 -81 -35 -98 -68
-98 -15 0 -17 8 -12 68 4 47 10 70 22 77 9 6 24 17 32 25 41 39 91 71 101 65
5 -3 10 -1 10 4 0 6 -6 11 -12 12 -7 0 -4 4 7 9 11 5 51 34 90 64 38 31 74 55
80 52 7 -2 12 2 12 10 0 34 -36 17 -175 -83 -56 -41 -110 -77 -120 -80 -20 -8
-57 -45 -72 -73 -6 -11 -10 -43 -9 -72 2 -74 1 -76 -19 -82 -10 -4 -19 -12
-19 -19 0 -6 -10 -32 -22 -57 -20 -40 -88 -208 -95 -235 -1 -5 -8 -37 -15 -70
-27 -130 -25 -127 -46 -60 -27 91 -37 115 -46 115 -5 0 -9 -5 -9 -10 0 -26 34
-147 47 -165 29 -44 10 -36 -38 16 -27 30 -48 50 -47 44 15 -41 45 -96 69
-126 16 -20 29 -40 29 -45 0 -4 6 -15 13 -23 7 -9 20 -36 27 -61 7 -25 17 -50
22 -56 4 -6 17 -49 28 -96 11 -47 30 -112 41 -144 12 -32 23 -81 24 -109 2
-27 7 -86 10 -130 6 -63 3 -90 -10 -125 -26 -69 -28 -89 -15 -105 16 -19 7
-19 -28 -1 -16 8 -37 14 -47 13 -11 -1 -20 4 -20 12 0 8 -7 16 -15 18 -13 4
-13 3 0 -7 12 -10 10 -11 -10 -6 -106 26 -123 28 -149 16 -53 -23 -181 -102
-181 -111 0 -16 16 -10 57 20 79 57 143 84 187 78 54 -8 197 -65 215 -86 11
-14 12 -7 7 44 -5 45 -2 67 10 90 15 28 23 104 39 392 10 182 14 212 45 291
17 44 37 86 45 92 8 7 15 19 15 27 0 8 5 11 10 8 6 -3 10 -4 10 0 0 3 -11 10
-25 15 -14 5 -25 13 -24 17 0 5 21 26 45 47 43 38 45 38 59 20 8 -10 15 -14
15 -7 0 6 -4 15 -10 18 -18 11 -11 26 27 58 20 18 58 52 85 76 40 36 50 42 63
31 8 -7 15 -18 15 -24 1 -15 48 -72 54 -65 3 3 -10 29 -30 59 -31 47 -34 57
-23 77 7 12 15 20 19 18 4 -2 7 3 7 11 0 9 -4 11 -10 5 -21 -21 -34 0 -31 49
1 28 -1 50 -6 50 -4 0 -8 -30 -8 -67 0 -94 0 -93 -19 -87 -15 5 -16 4 -3 -5
14 -10 13 -12 -11 -15 -6 0 -16 -9 -23 -18 -7 -10 -16 -18 -20 -18 -10 0 -7
207 4 236 6 15 13 24 17 21 3 -4 13 -2 23 3 10 5 21 6 25 2 3 -4 17 -7 31 -7
l24 -1 -21 22 c-17 18 -20 30 -14 62 l6 39 87 -13 c48 -8 90 -14 95 -14 4 0 7
-23 7 -50 l0 -51 -62 7 c-35 4 -60 3 -56 -1 4 -4 27 -9 50 -12 59 -6 68 -10
68 -30 0 -15 -8 -18 -40 -17 -32 2 -40 -2 -40 -15 0 -9 -6 -23 -12 -31 -7 -8
-4 -7 8 3 24 20 69 24 58 5 -6 -10 -4 -10 7 0 16 15 49 16 49 1 0 -7 7 -8 18
-4 9 3 35 10 57 15 72 15 189 65 275 118 46 28 85 50 87 49 1 -2 -2 -18 -7
-37 -5 -19 -8 -36 -5 -38 2 -2 9 15 15 39 9 31 27 57 63 91 29 27 52 48 53 48
1 0 14 -7 30 -15 15 -8 31 -12 34 -9 5 6 -24 30 -44 37 -6 2 1 19 17 41 55 71
90 164 93 244 2 39 5 76 8 81 4 5 -2 8 -11 7 -13 -2 -20 -16 -25 -50 -10 -71
-38 -153 -59 -172 -11 -9 -19 -22 -19 -27 0 -6 -12 -26 -27 -45 -24 -32 -27
-33 -34 -16 -18 45 -9 86 31 146 22 33 40 64 40 68 0 4 11 28 25 51 14 24 30
60 35 80 9 31 13 36 35 31 25 -4 29 -12 25 -41 -1 -12 1 -12 12 -4 7 7 26 17
42 23 23 8 27 8 23 -4 -3 -7 1 -23 8 -34 22 -30 31 -102 14 -102 -10 -1 -9 -5
4 -14 21 -16 48 -156 50 -265 2 -69 0 -76 -21 -87 -13 -6 -19 -13 -12 -16 9
-3 7 -14 -6 -43 -9 -22 -16 -46 -15 -54 1 -7 -2 -10 -7 -7 -5 3 -24 -15 -43
-40 -28 -37 -34 -42 -40 -27 -5 14 -8 10 -14 -17 -4 -19 -15 -45 -23 -58 -24
-36 -140 -145 -172 -162 -30 -16 -44 -35 -35 -51 7 -10 95 49 142 95 17 17 47
44 67 59 20 16 36 33 36 38 0 16 81 113 110 132 42 27 68 77 76 142 0 6 5 21
11 35 34 81 53 167 47 213 -9 62 -24 60 -24 -3 0 -31 -10 -75 -27 -117 l-28
-68 -7 75 c-4 41 -14 108 -22 148 -9 47 -10 74 -4 78 7 4 6 9 -1 13 -17 11
-32 69 -19 77 6 4 7 9 0 13 -5 3 -12 16 -16 29 -5 16 -3 22 7 22 8 0 17 6 19
13 6 15 -9 177 -19 197 -7 18 -6 13 -22 68 -6 23 -9 47 -6 52 3 5 1 11 -5 15
-5 3 -7 20 -3 38 3 18 2 29 -2 25 -5 -4 -15 -2 -24 4 -13 10 -14 10 -3 -2z
m69 -337 c-3 -10 -5 -4 -5 12 0 17 2 24 5 18 2 -7 2 -21 0 -30z m-924 -476
c61 -54 80 -88 59 -101 -7 -4 -173 23 -181 30 -9 8 33 143 43 137 6 -4 41 -34
79 -66z m-456 -9 c-3 -8 -6 -5 -6 6 -1 11 2 17 5 13 3 -3 4 -12 1 -19z m224
-176 c-5 -10 -36 -26 -68 -36 -32 -10 -64 -21 -72 -24 -11 -4 -13 5 -9 47 3
29 10 57 16 63 6 6 39 18 74 28 l63 17 3 -38 c2 -21 -1 -46 -7 -57z m90 81 c1
-20 -2 -77 -4 -79 -1 -1 -17 -5 -34 -9 l-33 -7 0 56 0 56 35 0 c26 0 35 -4 36
-17z m257 3 c15 -8 44 -33 64 -56 37 -40 39 -41 85 -35 27 3 70 11 96 17 26 6
51 8 54 5 7 -8 -82 -51 -164 -80 -44 -16 -88 -24 -119 -23 l-49 3 -1 91 c-1
51 1 92 3 92 2 0 16 -6 31 -14z m-506 -96 c-4 -49 -26 -80 -57 -80 -17 0 -6
103 13 118 34 26 47 15 44 -38z m160 -156 l3 -127 -44 -38 c-24 -22 -47 -39
-52 -39 -4 0 -13 16 -19 35 -6 19 -19 39 -28 45 -9 5 -13 10 -8 10 4 0 1 11
-8 25 -13 20 -15 39 -10 89 4 35 10 69 14 76 6 10 111 46 142 49 4 1 8 -56 10
-125z m-172 47 c0 -16 -3 -42 -6 -59 l-6 -31 -24 29 c-28 33 -29 38 -8 68 22
32 44 28 44 -7z"/>
<path d="M2821 3464 c0 -11 3 -14 6 -6 3 7 2 16 -1 19 -3 4 -6 -2 -5 -13z"/>
<path d="M1955 3450 c-3 -5 -1 -10 4 -10 6 0 11 5 11 10 0 6 -2 10 -4 10 -3 0
-8 -4 -11 -10z"/>
<path d="M2874 3370 c0 -52 1 -74 3 -47 2 26 2 68 0 95 -2 26 -3 4 -3 -48z"/>
<path d="M2391 3434 c0 -11 3 -14 6 -6 3 7 2 16 -1 19 -3 4 -6 -2 -5 -13z"/>
<path d="M2632 3430 c0 -14 2 -19 5 -12 2 6 2 18 0 25 -3 6 -5 1 -5 -13z"/>
<path d="M2931 3434 c0 -11 3 -14 6 -6 3 7 2 16 -1 19 -3 4 -6 -2 -5 -13z"/>
<path d="M2822 3415 c0 -16 2 -22 5 -12 2 9 2 23 0 30 -3 6 -5 -1 -5 -18z"/>
<path d="M2927 3395 c-4 -8 -2 -17 3 -20 6 -4 10 3 10 14 0 25 -6 27 -13 6z"/>
<path d="M2751 3384 c0 -11 3 -14 6 -6 3 7 2 16 -1 19 -3 4 -6 -2 -5 -13z"/>
<path d="M2972 3380 c0 -14 2 -19 5 -12 2 6 2 18 0 25 -3 6 -5 1 -5 -13z"/>
<path d="M2701 3374 c0 -11 3 -14 6 -6 3 7 2 16 -1 19 -3 4 -6 -2 -5 -13z"/>
<path d="M2808 3347 c-3 -19 -2 -25 4 -19 6 6 8 18 6 28 -3 14 -5 12 -10 -9z"/>
<path d="M2001 3344 c0 -11 3 -14 6 -6 3 7 2 16 -1 19 -3 4 -6 -2 -5 -13z"/>
<path d="M1901 3314 c0 -11 3 -14 6 -6 3 7 2 16 -1 19 -3 4 -6 -2 -5 -13z"/>
<path d="M2792 3294 c-11 -12 -10 -15 3 -20 20 -8 24 -3 16 17 -5 15 -8 15
-19 3z"/>
<path d="M3080 3068 c0 -4 4 -9 9 -12 5 -3 12 -18 16 -33 3 -16 13 -35 22 -45
8 -9 13 -25 12 -35 -3 -17 26 -83 36 -83 3 0 3 11 -1 25 -5 19 0 30 23 49 15
13 24 28 20 33 -5 4 -17 -2 -27 -14 -10 -13 -21 -23 -23 -23 -3 0 -18 25 -33
56 l-27 56 24 19 24 18 -37 -2 c-21 -1 -38 -5 -38 -9z"/>
<path d="M3173 3063 c-20 -7 -15 -22 5 -16 10 2 30 -1 46 -7 21 -8 26 -15 21
-28 -5 -13 -4 -14 6 -5 10 10 10 15 0 27 -15 18 -61 35 -78 29z"/>
<path d="M2500 3021 c0 -5 7 -12 16 -15 14 -5 15 -4 4 9 -14 17 -20 19 -20 6z"/>
<path d="M2938 3005 c2 -14 6 -25 8 -25 2 0 4 11 4 25 0 14 -4 25 -9 25 -4 0
-6 -11 -3 -25z"/>
<path d="M2178 2993 c7 -3 16 -2 19 1 4 3 -2 6 -13 5 -11 0 -14 -3 -6 -6z"/>
<path d="M2440 2981 c0 -17 12 -41 20 -41 10 0 1 38 -11 46 -5 3 -9 1 -9 -5z"/>
<path d="M3240 2975 c0 -8 4 -15 10 -15 5 0 7 7 4 15 -4 8 -8 15 -10 15 -2 0
-4 -7 -4 -15z"/>
<path d="M2286 2952 c-15 -18 -15 -19 11 -31 23 -10 25 -10 15 2 -7 8 -10 22
-6 31 8 21 1 20 -20 -2z"/>
<path d="M2949 2944 c-3 -17 -2 -40 2 -50 4 -11 8 -76 8 -146 1 -100 -2 -130
-14 -142 -9 -9 -11 -17 -5 -21 5 -3 11 -18 11 -33 1 -15 5 -2 9 28 10 68 10
324 1 365 l-7 30 -5 -31z"/>
<path d="M2188 2953 c7 -3 16 -2 19 1 4 3 -2 6 -13 5 -11 0 -14 -3 -6 -6z"/>
<path d="M3303 2942 c20 -22 22 -39 5 -45 -7 -2 -3 -2 10 0 35 6 62 -15 83
-62 10 -23 26 -48 35 -56 35 -29 -54 109 -92 144 -43 38 -70 51 -41 19z"/>
<path d="M2630 2940 c-23 -7 -23 -8 -3 -9 12 -1 25 4 28 9 3 6 5 10 3 9 -2 -1
-14 -5 -28 -9z"/>
<path d="M2438 2913 c6 -2 18 -2 25 0 6 3 1 5 -13 5 -14 0 -19 -2 -12 -5z"/>
<path d="M3230 2890 c-12 -8 -9 -10 13 -10 15 0 27 5 27 10 0 13 -20 13 -40 0z"/>
<path d="M3200 2858 c0 -4 14 -20 30 -36 27 -27 30 -37 30 -89 -1 -111 -21
-155 -154 -326 -34 -43 -81 -105 -106 -137 -25 -33 -76 -86 -115 -118 -74 -62
-93 -89 -53 -76 31 9 105 61 111 76 4 9 6 10 6 1 1 -15 61 3 61 18 0 6 -8 5
-19 -1 -35 -18 -34 -11 5 33 22 24 64 72 94 107 30 34 67 76 81 92 14 16 43
60 65 98 21 39 44 70 50 70 6 0 28 -7 47 -15 20 -8 38 -15 40 -15 6 0 4 30 -2
31 -16 2 -41 8 -61 14 -20 6 -21 11 -15 58 4 29 11 58 15 66 19 34 -25 131
-52 115 -5 -4 -20 4 -34 17 -13 12 -24 20 -24 17z"/>
<path d="M1966 2818 c-8 -18 -17 -44 -20 -58 -10 -37 11 -1 29 50 17 48 10 54
-9 8z"/>
<path d="M2012 2830 c0 -14 2 -19 5 -12 2 6 2 18 0 25 -3 6 -5 1 -5 -13z"/>
<path d="M3462 2728 c22 -69 29 -79 58 -96 35 -20 37 -35 10 -69 -11 -14 -19
-35 -19 -47 1 -20 2 -20 6 -1 3 11 14 32 24 47 27 37 24 47 -21 85 -29 25 -40
42 -40 63 0 15 -6 33 -14 40 -13 10 -13 7 -4 -22z"/>
<path d="M1934 2722 c-15 -10 -28 -52 -16 -52 6 0 15 14 21 30 5 17 9 30 8 30
-1 0 -7 -4 -13 -8z"/>
<path d="M3330 2725 c0 -2 18 -14 40 -25 49 -25 53 -19 6 9 -33 21 -46 25 -46
16z"/>
<path d="M2865 2610 c3 -5 8 -10 11 -10 2 0 4 5 4 10 0 6 -5 10 -11 10 -5 0
-7 -4 -4 -10z"/>
<path d="M1565 2500 c-3 -5 -1 -10 4 -10 6 0 11 5 11 10 0 6 -2 10 -4 10 -3 0
-8 -4 -11 -10z"/>
<path d="M3525 2467 c3 -10 5 -30 5 -45 0 -18 3 -23 11 -15 7 7 6 20 -6 44 -8
19 -13 26 -10 16z"/>
<path d="M2942 2445 c0 -16 2 -22 5 -12 2 9 2 23 0 30 -3 6 -5 -1 -5 -18z"/>
<path d="M2616 2409 c-9 -23 -15 -43 -13 -46 3 -2 12 15 21 38 9 23 15 43 13
46 -3 2 -12 -15 -21 -38z"/>
<path d="M1985 2430 c-3 -5 -1 -10 4 -10 6 0 11 5 11 10 0 6 -2 10 -4 10 -3 0
-8 -4 -11 -10z"/>
<path d="M3190 2396 c0 -2 7 -7 16 -10 8 -3 12 -2 9 4 -6 10 -25 14 -25 6z"/>
<path d="M3380 2385 c0 -9 -23 -30 -50 -47 -28 -17 -48 -33 -46 -35 7 -7 60
23 80 46 15 16 22 18 33 10 19 -16 16 -36 -8 -60 -11 -11 -19 -22 -17 -25 3
-2 17 9 32 25 l29 30 28 -22 c30 -22 38 -54 17 -75 -9 -9 -7 -12 11 -12 15 0
20 4 15 12 -5 7 18 -9 49 -37 31 -27 57 -50 57 -52 0 -1 -21 -14 -47 -28 -27
-15 -39 -23 -28 -19 11 4 41 14 68 23 41 14 47 19 45 41 -2 15 -19 36 -48 58
-25 19 -57 43 -72 54 -15 11 -28 29 -30 41 -2 11 -9 22 -16 25 -8 2 -10 -2 -5
-15 8 -23 -6 -10 -22 19 -6 13 -19 22 -28 22 -9 -1 -14 2 -12 7 3 4 -4 13 -15
19 -16 9 -20 8 -20 -5z m251 -222 c13 -16 12 -17 -3 -4 -17 13 -22 21 -14 21
2 0 10 -8 17 -17z"/>
<path d="M3575 2376 c17 -7 32 -11 35 -9 8 7 -24 23 -45 22 -15 0 -13 -3 10
-13z"/>
<path d="M2070 2360 c-16 -10 -23 -50 -9 -50 14 0 19 18 7 23 -9 3 -7 10 7 21
22 17 19 21 -5 6z"/>
<path d="M3630 2355 c0 -3 22 -15 48 -28 60 -29 120 -82 138 -122 11 -25 13
-26 14 -9 0 27 -73 99 -138 136 -47 27 -62 33 -62 23z"/>
<path d="M2585 2340 c-3 -5 -1 -10 4 -10 6 0 11 5 11 10 0 6 -2 10 -4 10 -3 0
-8 -4 -11 -10z"/>
<path d="M2197 2323 c-12 -12 -8 -18 26 -37 l32 -18 -27 24 c-15 14 -25 28
-21 32 3 3 4 6 1 6 -2 0 -8 -3 -11 -7z"/>
<path d="M3240 2289 c-8 -5 -42 -25 -74 -44 -33 -19 -56 -35 -52 -35 9 0 105
53 141 77 22 15 8 17 -15 2z"/>
<path d="M1363 2283 c4 -3 0 -11 -8 -17 -14 -10 -14 -14 0 -34 23 -32 31 -27
27 18 -2 22 -9 40 -15 40 -6 0 -7 -3 -4 -7z"/>
<path d="M1305 2260 c-10 -11 -14 -20 -9 -20 5 0 15 9 22 20 7 11 11 20 9 20
-2 0 -12 -9 -22 -20z"/>
<path d="M2270 2256 c0 -2 7 -7 16 -10 8 -3 12 -2 9 4 -6 10 -25 14 -25 6z"/>
<path d="M3300 2223 c-60 -46 -63 -51 -15 -23 45 26 71 48 64 54 -2 2 -24 -12
-49 -31z"/>
<path d="M2536 2203 c-6 -14 -5 -15 5 -6 7 7 10 15 7 18 -3 3 -9 -2 -12 -12z"/>
<path d="M3390 2180 c-58 -31 -187 -65 -217 -57 -14 3 -9 8 19 20 32 15 59 37
44 37 -14 0 -116 -43 -121 -51 -3 -5 1 -6 9 -3 9 4 16 1 16 -6 0 -8 17 -11 54
-8 63 4 63 -4 1 -27 -25 -10 -42 -22 -38 -28 3 -6 1 -7 -5 -3 -16 9 -52 -11
-52 -29 0 -8 5 -15 10 -15 6 0 10 -7 10 -16 0 -20 14 -15 159 53 64 29 133 61
153 71 46 21 56 42 29 63 -11 9 -17 19 -14 23 11 11 0 6 -57 -24z"/>
<path d="M2096 2173 c-6 -14 -5 -15 5 -6 7 7 10 15 7 18 -3 3 -9 -2 -12 -12z"/>
<path d="M3803 2092 c-18 -37 -46 -82 -63 -101 -38 -43 -39 -53 -1 -17 16 16
44 56 62 89 l32 61 13 -39 c6 -22 12 -33 13 -25 0 8 -5 34 -12 57 l-13 42 -31
-67z"/>
<path d="M2495 2140 c-4 -6 -11 -8 -16 -5 -5 3 -6 -1 -3 -9 7 -19 -25 -81 -70
-135 -48 -58 -46 -64 4 -10 22 24 49 63 61 87 19 38 25 43 48 38 25 -5 26 -5
3 6 -13 6 -21 17 -18 25 6 15 0 17 -9 3z"/>
<path d="M3677 2092 l-18 -37 20 25 c12 14 21 31 21 38 0 19 -4 15 -23 -26z"/>
<path d="M1227 2113 c-5 -8 -47 -116 -47 -120 0 -2 4 -3 9 -3 5 0 12 12 16 28
3 15 14 42 22 60 9 18 13 35 10 38 -3 3 -7 2 -10 -3z"/>
<path d="M3060 2110 c-8 -5 -48 -19 -88 -31 -40 -12 -70 -24 -67 -27 6 -6 136
34 173 54 15 8 20 14 12 14 -8 0 -22 -5 -30 -10z"/>
<path d="M2095 2102 c22 -23 170 -142 177 -142 9 0 -76 78 -122 111 -44 32
-69 46 -55 31z"/>
<path d="M2570 2086 c14 -9 32 -15 40 -15 13 0 13 1 0 8 -8 5 -26 12 -40 15
l-25 7 25 -15z"/>
<path d="M2045 2077 c-6 -7 -28 -33 -49 -58 l-38 -46 -51 33 c-28 19 -54 34
-57 34 -3 0 -13 -17 -23 -38 l-17 -37 21 28 c23 30 41 34 58 13 8 -10 6 -19
-9 -39 -11 -14 -20 -29 -20 -33 0 -4 -8 -16 -17 -26 -15 -17 -15 -19 3 -33 13
-11 14 -14 4 -13 -10 2 -14 -4 -12 -17 5 -36 11 -45 29 -45 17 1 17 1 0 11
-17 10 -17 12 -2 29 9 10 24 16 35 13 14 -4 25 9 50 56 18 34 37 61 42 61 6 0
8 6 5 14 -3 7 10 31 29 52 18 21 34 42 34 47 0 10 -3 8 -15 -6z m-104 -103
c17 -15 17 -18 -4 -60 -20 -42 -23 -44 -52 -38 -16 3 -31 8 -33 9 -6 5 53 105
62 105 5 0 17 -7 27 -16z"/>
<path d="M2610 2039 c-131 -92 -220 -149 -234 -149 -9 0 -16 -4 -16 -10 0 -20
29 -9 104 42 42 28 78 49 81 47 2 -3 0 -22 -6 -42 -11 -42 -79 -138 -171 -243
-66 -75 -91 -96 -81 -66 3 9 -3 6 -12 -8 -32 -44 -68 -80 -82 -80 -8 0 -12 4
-9 9 3 5 -1 15 -10 22 -21 17 -85 149 -78 160 3 5 12 9 20 9 26 0 215 107 229
130 10 17 -11 11 -38 -10 -14 -12 -38 -27 -54 -35 -25 -13 -29 -13 -50 7 -13
12 -26 19 -29 16 -3 -4 4 -11 15 -18 12 -6 21 -15 21 -19 0 -14 -60 -46 -121
-66 -30 -10 -58 -21 -63 -26 -15 -14 2 -23 18 -10 19 16 32 8 40 -25 4 -15 18
-43 32 -63 13 -19 24 -43 24 -52 0 -9 7 -22 15 -29 8 -7 12 -16 9 -21 -3 -5 2
-12 10 -15 9 -3 28 6 47 23 100 90 202 199 253 273 32 47 65 90 73 97 8 6 15
20 16 32 1 12 5 21 10 21 4 0 5 5 2 11 -9 14 24 49 46 49 10 0 21 5 25 12 5 8
1 9 -12 5 -15 -6 -14 -3 5 13 13 11 20 20 15 20 -4 0 1 7 12 15 42 32 -5 10
-56 -26z"/>
<path d="M3425 2060 c-8 -13 5 -13 25 0 13 8 13 10 -2 10 -9 0 -20 -4 -23 -10z"/>
<path d="M2713 2041 c-66 -26 -62 -33 5 -10 34 11 62 23 62 25 0 7 -25 2 -67
-15z"/>
<path d="M3375 2040 c-8 -13 5 -13 25 0 13 8 13 10 -2 10 -9 0 -20 -4 -23 -10z"/>
<path d="M3630 2039 c0 -5 5 -7 10 -4 6 3 10 8 10 11 0 2 -4 4 -10 4 -5 0 -10
-5 -10 -11z"/>
<path d="M3687 2036 c-4 -10 -1 -13 9 -9 7 3 14 9 14 14 0 14 -17 10 -23 -5z"/>
<path d="M2840 2030 c-8 -5 -10 -10 -5 -10 6 0 17 5 25 10 8 5 11 10 5 10 -5
0 -17 -5 -25 -10z"/>
<path d="M2805 2020 c-3 -5 -1 -10 4 -10 6 0 11 5 11 10 0 6 -2 10 -4 10 -3 0
-8 -4 -11 -10z"/>
<path d="M3320 2021 c-14 -5 -34 -13 -45 -20 -19 -11 -120 -48 -337 -123 -49
-16 -88 -35 -88 -41 0 -7 4 -7 12 1 16 16 48 15 48 -1 0 -7 15 -38 33 -68 30
-49 56 -133 92 -294 7 -33 21 -82 30 -109 11 -32 15 -64 11 -90 -5 -36 -4 -39
7 -24 12 16 16 13 34 -25 12 -23 28 -66 38 -94 9 -29 21 -53 26 -53 5 0 9 -13
9 -30 0 -33 -9 -36 -43 -18 -26 14 -118 28 -111 16 3 -4 11 -8 19 -8 7 0 15
-4 17 -9 2 -5 17 -12 33 -15 17 -3 48 -10 70 -16 22 -5 61 -12 88 -16 42 -5
49 -9 67 -42 11 -21 19 -30 20 -20 0 9 -4 19 -8 22 -5 3 -8 31 -8 63 1 52 3
58 24 61 12 2 22 8 22 13 0 7 -12 8 -30 4 -27 -6 -30 -4 -30 20 0 16 4 24 11
20 5 -4 19 1 29 10 14 13 33 16 84 13 77 -4 89 7 17 15 -55 6 -110 0 -128 -15
-10 -8 -13 -5 -13 10 0 11 9 23 23 27 21 7 21 8 -6 12 l-28 4 5 112 c3 72 11
129 23 161 17 45 22 50 68 65 28 9 52 17 55 17 25 4 49 17 45 24 -7 11 -27 7
-94 -19 l-54 -22 7 32 c3 17 6 84 6 148 l0 116 33 18 c22 12 43 16 60 12 23
-6 26 -5 20 10 -4 12 0 23 12 31 10 8 15 17 12 21 -4 3 -27 -8 -51 -25 -24
-18 -51 -32 -60 -32 -9 0 -16 -6 -16 -12 -1 -9 -4 -8 -10 2 -4 9 -10 50 -11
93 -2 42 -6 77 -9 76 -3 0 -16 -4 -30 -8z"/>
<path d="M3568 1984 c-26 -24 -43 -44 -39 -44 13 0 97 77 91 83 -3 3 -26 -14
-52 -39z"/>
<path d="M2739 1993 c-13 -15 -12 -15 9 -4 23 12 28 21 13 21 -5 0 -15 -7 -22
-17z"/>
<path d="M3637 1993 c-4 -3 -7 -11 -7 -17 0 -6 5 -5 12 2 6 6 9 14 7 17 -3 3
-9 2 -12 -2z"/>
<path d="M3856 1982 c-2 -4 -1 -14 5 -22 7 -12 9 -10 9 8 0 23 -5 28 -14 14z"/>
<path d="M1170 1961 c0 -6 5 -13 10 -16 6 -3 10 1 10 9 0 9 -4 16 -10 16 -5 0
-10 -4 -10 -9z"/>
<path d="M2020 1951 c0 -6 4 -11 9 -11 4 0 30 -19 57 -42 26 -24 41 -33 32
-20 -20 30 -98 87 -98 73z"/>
<path d="M2736 1915 c-65 -25 -121 -47 -123 -49 -3 -3 -2 -18 2 -35 6 -28 9
-30 38 -25 18 4 48 14 67 24 19 9 65 27 102 39 36 12 69 29 72 37 7 19 -10 54
-27 54 -7 -1 -66 -21 -131 -45z"/>
<path d="M1150 1937 c0 -8 7 -17 15 -21 8 -3 15 -3 15 0 0 3 -7 12 -15 20 -13
13 -15 13 -15 1z"/>
<path d="M1781 1933 c0 -10 -7 -67 -16 -128 -9 -60 -20 -146 -25 -190 -5 -44
-12 -94 -16 -112 -5 -25 -2 -33 14 -42 30 -16 34 -3 26 96 -4 54 -2 111 6 148
6 33 13 80 16 105 6 63 14 94 27 102 8 5 7 11 -2 22 -18 21 -30 20 -30 -1z"/>
<path d="M2325 1920 c11 -14 20 -26 21 -28 1 -2 5 5 8 15 4 9 4 14 0 10 -4 -4
-17 1 -28 10 l-21 18 20 -25z"/>
<path d="M3580 1930 c-8 -5 -12 -12 -9 -15 4 -3 12 1 19 10 14 17 11 19 -10 5z"/>
<path d="M3679 1923 c-13 -15 -12 -15 9 -4 23 12 28 21 13 21 -5 0 -15 -7 -22
-17z"/>
<path d="M2590 1910 c-14 -10 -23 -21 -20 -23 3 -3 16 3 29 14 31 25 23 33 -9
9z"/>
<path d="M3862 1910 c0 -14 2 -19 5 -12 2 6 2 18 0 25 -3 6 -5 1 -5 -13z"/>
<path d="M3607 1889 c-26 -18 -46 -34 -43 -36 5 -5 82 42 91 57 9 15 5 13 -48
-21z"/>
<path d="M3520 1880 c-9 -6 -10 -10 -3 -10 6 0 15 5 18 10 8 12 4 12 -15 0z"/>
<path d="M3516 1825 c-11 -8 -15 -15 -9 -15 6 0 16 7 23 15 16 19 11 19 -14 0z"/>
<path d="M2769 1800 l-24 -20 35 17 c44 20 47 23 28 23 -9 0 -26 -9 -39 -20z"/>
<path d="M1138 1767 c-3 -19 -2 -25 4 -19 6 6 8 18 6 28 -3 14 -5 12 -10 -9z"/>
<path d="M3745 1725 c-31 -36 -61 -65 -66 -65 -6 0 -39 -13 -74 -30 -35 -16
-69 -30 -75 -30 -7 0 -10 -6 -7 -12 6 -17 10 -16 108 32 62 31 98 57 137 100
29 32 49 61 44 64 -5 3 -35 -23 -67 -59z"/>
<path d="M1915 1760 c10 -11 20 -20 23 -20 3 0 -3 9 -13 20 -10 11 -20 20 -23
20 -3 0 3 -9 13 -20z"/>
<path d="M2698 1773 c-16 -2 -28 -9 -28 -14 0 -5 -5 -9 -11 -9 -6 0 -48 -21
-93 -47 -44 -25 -98 -55 -118 -66 -45 -22 -48 -30 -12 -21 22 6 25 4 19 -7 -9
-15 -66 -90 -75 -99 -3 -3 -16 -28 -29 -57 -13 -28 -39 -68 -57 -90 -19 -21
-36 -51 -38 -68 -9 -50 -13 -154 -7 -157 3 -2 5 -31 3 -65 -4 -61 -4 -62 -57
-104 -29 -23 -57 -42 -61 -42 -5 0 -22 -13 -39 -29 -16 -16 -52 -43 -80 -60
-27 -17 -68 -49 -90 -70 l-41 -38 -77 75 c-60 58 -84 75 -106 75 -16 0 -37 3
-47 7 -11 4 -15 2 -11 -4 3 -5 -24 -25 -61 -43 -66 -33 -160 -100 -174 -124
-4 -7 -12 -52 -18 -101 -6 -49 -16 -92 -21 -96 -11 -6 33 -63 81 -105 25 -22
25 -24 25 -181 0 -141 2 -162 20 -188 11 -17 18 -33 17 -37 -4 -15 16 -8 22 7
3 8 11 15 19 15 7 0 24 11 37 25 16 17 34 25 58 25 50 0 102 54 102 107 0 33
7 45 55 91 30 29 58 64 61 78 5 18 13 24 33 24 31 0 30 -5 32 115 l1 84 36 7
c21 4 48 12 62 19 14 7 35 15 46 19 21 7 21 6 -2 -41 -37 -77 -41 -109 -13
-132 36 -30 150 -55 212 -47 29 4 47 3 40 -1 -7 -5 -12 -59 -13 -163 -3 -227
-2 -240 15 -240 13 0 15 28 15 195 0 182 1 196 20 215 11 11 29 20 41 20 26 0
100 50 150 102 l38 39 48 -22 c51 -24 86 -30 105 -18 6 4 -8 12 -33 19 -24 7
-56 21 -71 31 -27 19 -27 21 -21 102 6 85 -7 194 -33 285 -13 44 -19 53 -34
49 -24 -6 -29 9 -17 49 7 23 14 30 27 27 26 -7 34 14 9 22 -17 6 -20 12 -15
33 4 15 11 43 15 62 5 19 14 62 21 95 23 120 28 132 58 138 54 11 177 86 232
142 30 30 49 55 43 55 -6 0 -20 -11 -31 -25 -11 -14 -24 -25 -29 -25 -5 0 -22
-14 -38 -30 -32 -33 -179 -113 -189 -103 -24 25 46 273 87 305 12 10 20 17 17
16 -3 0 -17 -3 -32 -5z m-118 -103 c0 -23 -13 -81 -46 -205 -14 -49 -36 -153
-49 -230 -14 -77 -30 -157 -36 -179 -6 -21 -8 -44 -5 -51 2 -7 -2 -16 -10 -19
-21 -8 -113 -7 -143 1 l-23 6 4 152 4 151 46 65 c25 35 55 84 66 109 11 25 40
69 65 99 25 30 43 59 41 66 -5 13 51 55 74 55 6 0 12 -9 12 -20z"/>
<path d="M2386 1200 c-28 -28 -9 -47 20 -19 13 12 21 26 18 30 -8 13 -17 10
-38 -11z"/>
<path d="M2370 1140 c0 -5 9 -10 19 -10 11 0 23 5 26 10 4 6 -5 10 -19 10 -14
0 -26 -4 -26 -10z"/>
<path d="M1860 1751 c0 -6 4 -13 10 -16 6 -3 7 1 4 9 -7 18 -14 21 -14 7z"/>
<path d="M3881 1684 c0 -11 3 -14 6 -6 3 7 2 16 -1 19 -3 4 -6 -2 -5 -13z"/>
<path d="M3873 1652 c-10 -7 -10 -12 0 -26 11 -16 13 -15 15 8 2 29 2 29 -15
18z"/>
<path d="M1884 1620 c3 -14 10 -81 17 -150 10 -108 10 -155 -6 -333 -9 -114
-15 -216 -12 -228 4 -14 -2 -33 -14 -51 -11 -15 -17 -28 -12 -28 4 0 1 -5 -7
-10 -13 -9 -13 -10 0 -10 9 0 35 32 59 70 23 39 48 70 55 70 10 0 11 14 5 58
-4 31 -9 184 -13 340 -3 155 -8 287 -11 292 -3 5 -19 8 -36 7 -26 -2 -29 -5
-25 -27z"/>
<path d="M1112 1585 c0 -16 2 -22 5 -12 2 9 2 23 0 30 -3 6 -5 -1 -5 -18z"/>
<path d="M2358 1593 c-10 -2 -18 -9 -18 -14 0 -14 16 -11 30 6 7 8 11 14 9 14
-2 -1 -12 -3 -21 -6z"/>
<path d="M3881 1587 c-1 -12 -8 -16 -28 -15 -49 4 -213 -13 -213 -22 0 -13 25
-15 132 -10 55 3 106 1 114 -3 16 -9 18 15 4 48 -7 17 -9 17 -9 2z m-58 -34
c-7 -2 -19 -2 -25 0 -7 3 -2 5 12 5 14 0 19 -2 13 -5z"/>
<path d="M2291 1526 l-24 -31 28 27 c16 15 27 29 24 31 -2 3 -15 -10 -28 -27z"/>
<path d="M2074 1526 c-8 -20 33 -297 46 -310 5 -5 11 -28 11 -51 1 -30 4 -23
11 30 5 39 14 86 20 105 19 61 20 66 5 40 l-15 -25 -6 25 c-3 14 -8 58 -11 99
-4 40 -9 79 -12 87 -7 18 -42 18 -49 0z"/>
<path d="M2965 1529 c-11 -17 1 -21 15 -4 8 9 8 15 2 15 -6 0 -14 -5 -17 -11z"/>
<path d="M3896 1493 c24 -128 22 -121 23 -83 1 49 -10 110 -20 110 -5 0 -6
-12 -3 -27z"/>
<path d="M2881 1454 c-24 -25 -41 -47 -39 -49 4 -5 98 82 98 90 0 15 -22 0
-59 -41z"/>
<path d="M2242 1470 c-18 -29 -15 -38 4 -12 9 13 14 25 12 27 -2 2 -9 -5 -16
-15z"/>
<path d="M2205 1400 c-9 -16 -13 -30 -11 -30 3 0 12 14 21 30 9 17 13 30 11
30 -3 0 -12 -13 -21 -30z"/>
<path d="M2801 1374 c-30 -39 -26 -51 5 -14 15 17 24 33 21 36 -2 3 -14 -7
-26 -22z"/>
<path d="M1091 1374 c0 -11 3 -14 6 -6 3 7 2 16 -1 19 -3 4 -6 -2 -5 -13z"/>
<path d="M3912 1320 c0 -19 2 -27 5 -17 2 9 2 25 0 35 -3 9 -5 1 -5 -18z"/>
<path d="M2926 1321 c-4 -7 -5 -15 -2 -18 9 -9 19 4 14 18 -4 11 -6 11 -12 0z"/>
<path d="M2735 1301 c-7 -22 -35 -36 -35 -18 0 7 -7 3 -16 -8 -8 -11 -18 -19
-22 -19 -12 3 -46 -25 -40 -32 4 -3 22 6 41 20 22 17 38 23 42 16 6 -9 55 39
55 54 0 14 -19 4 -25 -13z"/>
<path d="M2882 1265 c-13 -15 -17 -25 -9 -25 13 1 53 50 39 50 -4 0 -18 -11
-30 -25z"/>
<path d="M3905 1194 c-5 -59 -10 -74 -21 -70 -8 3 -14 1 -14 -4 0 -6 5 -10 10
-10 6 0 10 -8 10 -17 1 -15 2 -16 9 -3 10 17 27 180 18 180 -2 0 -8 -34 -12
-76z"/>
<path d="M2679 1226 c-7 -14 -16 -26 -21 -26 -4 0 -8 -4 -8 -10 0 -19 15 -9
33 21 10 18 15 34 13 37 -3 2 -11 -7 -17 -22z"/>
<path d="M3397 1189 c4 -4 37 -10 73 -13 73 -6 63 -1 -23 12 -32 5 -55 6 -50
1z"/>
<path d="M2616 1144 c-15 -14 -25 -28 -22 -31 4 -4 19 5 33 20 35 34 27 43
-11 11z"/>
<path d="M3556 1156 c5 -14 130 -33 141 -22 4 3 -9 6 -28 6 -19 1 -45 7 -59
15 -33 19 -61 19 -54 1z"/>
<path d="M3716 1129 c3 -5 29 -9 57 -8 59 1 54 5 -15 12 -26 2 -45 1 -42 -4z"/>
<path d="M2778 1117 c-26 -24 -69 -38 -83 -27 -10 8 -20 8 -37 -1 -26 -15 -30
-16 -58 -18 -17 -1 -19 -6 -14 -26 4 -17 2 -25 -7 -26 -8 0 -6 -4 5 -8 17 -6
32 -37 57 -116 10 -34 3 -184 -11 -236 -12 -41 -12 -39 -2 -37 4 0 24 -7 45
-16 30 -13 42 -14 53 -5 12 10 32 63 41 109 7 38 12 78 15 107 2 26 8 35 32
43 16 5 27 13 24 16 -3 3 -33 -6 -67 -20 -33 -14 -64 -26 -68 -26 -14 0 -74
118 -88 171 -13 48 -13 49 8 49 12 0 38 3 57 6 32 5 37 3 60 -35 13 -22 26
-39 28 -37 2 2 -8 22 -22 44 l-25 41 44 26 c25 14 45 28 45 30 0 10 -19 5 -32
-8z"/>
<path d="M2830 1125 c0 -10 84 -45 105 -44 11 1 1 7 -21 14 -23 7 -51 18 -63
24 -11 7 -21 9 -21 6z"/>
<path d="M3840 1120 c0 -5 5 -10 11 -10 5 0 7 5 4 10 -3 6 -8 10 -11 10 -2 0
-4 -4 -4 -10z"/>
<path d="M2131 1103 c0 -12 -4 -30 -7 -40 -5 -14 -4 -15 5 -7 7 6 11 24 8 40
-3 21 -4 23 -6 7z"/>
<path d="M3692 1109 c4 -12 48 -46 48 -37 0 2 -12 15 -26 27 -15 13 -24 17
-22 10z"/>
<path d="M1079 1083 c-4 -23 10 -106 25 -153 l15 -45 -4 50 c-5 78 -17 145
-26 151 -5 3 -10 2 -10 -3z"/>
<path d="M2960 1080 c0 -5 5 -10 11 -10 5 0 7 5 4 10 -3 6 -8 10 -11 10 -2 0
-4 -4 -4 -10z"/>
<path d="M2995 1070 c3 -5 11 -10 16 -10 6 0 7 5 4 10 -3 6 -11 10 -16 10 -6
0 -7 -4 -4 -10z"/>
<path d="M3390 1076 c0 -2 13 -6 29 -8 17 -2 28 -1 25 4 -5 8 -54 12 -54 4z"/>
<path d="M3751 1076 c2 -2 15 -9 29 -15 24 -11 24 -11 6 3 -16 13 -49 24 -35
12z"/>
<path d="M3486 1059 c3 -5 24 -9 46 -9 22 0 55 -8 72 -19 38 -23 86 -35 86
-22 0 6 -17 13 -37 17 -21 4 -47 13 -58 19 -24 15 -117 26 -109 14z"/>
<path d="M3876 1052 c-6 -18 -13 -23 -29 -18 -22 5 -22 5 -2 -10 16 -12 18
-19 8 -43 -6 -18 -7 -35 -1 -45 11 -20 13 -20 -50 2 -29 11 -64 30 -79 43
l-26 24 17 -27 c12 -18 36 -33 69 -44 58 -19 87 -39 88 -63 0 -10 2 -12 6 -4
2 7 -1 29 -7 48 -10 29 -9 43 5 79 9 24 15 52 13 62 -4 17 -5 16 -12 -4z"/>
<path d="M2110 995 c0 -14 5 -25 10 -25 6 0 10 11 10 25 0 14 -4 25 -10 25 -5
0 -10 -11 -10 -25z"/>
<path d="M2845 973 c17 -41 17 -132 0 -188 -21 -64 -15 -82 11 -33 29 54 23
238 -7 238 -7 0 -8 -7 -4 -17z"/>
<path d="M1591 953 c-1 -13 -5 -23 -11 -23 -13 0 -156 -93 -204 -133 -60 -50
-66 -57 -66 -76 0 -10 -7 -35 -16 -56 -8 -21 -13 -44 -10 -51 3 -8 1 -14 -4
-14 -6 0 -10 -4 -10 -10 0 -20 28 3 35 28 14 54 66 152 93 172 15 11 65 44
112 74 72 45 85 51 88 35 2 -11 9 -16 18 -12 9 3 11 9 6 17 -5 6 -14 25 -20
41 -9 26 -11 27 -11 8z"/>
<path d="M2776 960 c16 -32 46 -70 56 -70 5 0 1 10 -11 23 -12 12 -28 31 -37
42 -8 11 -12 13 -8 5z"/>
<path d="M3380 867 c0 -4 7 -19 16 -32 9 -13 22 -44 29 -67 8 -24 14 -35 14
-25 1 10 -6 33 -14 53 -15 37 -45 84 -45 71z"/>
<path d="M1132 840 c0 -8 6 -31 13 -50 7 -19 13 -28 13 -20 0 8 -6 31 -13 50
-7 19 -13 28 -13 20z"/>
<path d="M3856 834 c-4 -9 -4 -19 -1 -22 2 -3 7 3 11 12 4 9 4 19 1 22 -2 3
-7 -3 -11 -12z"/>
<path d="M2937 784 c-18 -62 -88 -186 -125 -221 -12 -13 -33 -23 -44 -23 -38
0 -8 -15 33 -16 21 -1 56 -4 77 -8 l37 -5 -32 12 c-44 17 -51 27 -29 43 11 8
14 14 7 14 -8 0 -7 9 5 30 10 16 20 27 22 25 3 -3 -1 -11 -8 -20 -7 -9 -10
-18 -7 -22 9 -9 62 110 80 180 20 74 5 84 -16 11z"/>
<path d="M3810 781 c-8 -10 -24 -23 -35 -29 -11 -6 -14 -12 -8 -12 7 0 27 13
45 30 18 16 29 29 23 30 -5 0 -17 -8 -25 -19z"/>
<path d="M1170 704 c8 -34 54 -94 72 -94 11 0 -5 29 -31 57 -11 12 -18 29 -15
37 3 8 -3 19 -14 25 -19 10 -19 8 -12 -25z"/>
<path d="M3725 720 c-3 -6 1 -7 9 -4 18 7 21 14 7 14 -6 0 -13 -4 -16 -10z"/>
<path d="M3443 705 c25 -93 25 -210 0 -237 -15 -17 -28 -19 -85 -16 -37 2 -62
0 -55 -4 18 -11 125 -10 148 2 10 6 19 17 19 24 0 8 21 34 46 58 25 23 50 52
55 63 6 12 -2 7 -19 -12 -17 -17 -33 -29 -36 -25 -4 3 -13 -3 -21 -14 -13 -18
-14 -17 -15 16 -1 40 -25 149 -36 158 -3 4 -4 -2 -1 -13z"/>
<path d="M3653 664 l-28 -26 33 22 c29 20 39 30 28 30 -3 0 -18 -12 -33 -26z"/>
<path d="M3602 634 c-7 -8 -8 -14 -3 -14 10 0 25 19 20 25 -2 1 -10 -3 -17
-11z"/>
<path d="M2926 511 c10 -11 72 -27 63 -17 -4 4 -21 11 -39 16 -20 6 -30 6 -24
1z"/>
<path d="M3014 485 c11 -8 29 -15 41 -15 42 0 54 -21 61 -105 3 -44 15 -127
25 -184 10 -58 19 -119 19 -137 0 -31 15 -53 27 -41 6 6 -13 155 -27 222 -5
22 -12 82 -16 133 l-7 92 30 0 c40 0 55 -20 55 -75 1 -25 5 -45 11 -45 5 0 7
26 5 57 -3 54 -2 57 22 63 16 4 -4 9 -55 13 -102 8 -133 13 -168 26 -38 15
-46 13 -23 -4z"/>
<path d="M3372 358 c6 -24 11 -89 12 -145 3 -133 16 -147 16 -17 0 93 -17 204
-31 204 -3 0 -2 -19 3 -42z"/>
<path d="M3387 46 c-5 -21 -6 -41 -3 -44 12 -11 17 7 14 44 l-3 39 -8 -39z"/>
</g>
</svg>
